<svg width="272" height="127" viewBox="0 0 272 127" fill="none" xmlns="http://www.w3.org/2000/svg">
<path opacity="0.55" d="M77 28H21C15.4772 28 11 32.4772 11 38V72C11 77.5228 15.4772 82 21 82H77C82.5229 82 87 77.5228 87 72V38C87 32.4772 82.5229 28 77 28Z" fill="#B594E0"/>
<path opacity="0.85" d="M85 36H29C23.4772 36 19 40.4772 19 46V80C19 85.5228 23.4772 90 29 90H85C90.5229 90 95 85.5228 95 80V46C95 40.4772 90.5229 36 85 36Z" fill="#3F2466"/>
<path d="M93 44H37C31.4772 44 27 48.4772 27 54V88C27 93.5228 31.4772 98 37 98H93C98.5229 98 103 93.5228 103 88V54C103 48.4772 98.5229 44 93 44Z" fill="#6B3FA0"/>
<path d="M47 77C51.9706 77 56 72.9706 56 68C56 63.0294 51.9706 59 47 59C42.0294 59 38 63.0294 38 68C38 72.9706 42.0294 77 47 77Z" fill="white"/>
<path d="M35 86C43 78 51 78 59 86" stroke="white" stroke-width="3.5" stroke-linecap="round"/>
<path opacity="0.9" d="M89.25 62H70.75C69.7835 62 69 62.7835 69 63.75C69 64.7165 69.7835 65.5 70.75 65.5H89.25C90.2165 65.5 91 64.7165 91 63.75C91 62.7835 90.2165 62 89.25 62Z" fill="white"/>
<path opacity="0.7" d="M81.25 72H70.75C69.7835 72 69 72.7835 69 73.75C69 74.7165 69.7835 75.5 70.75 75.5H81.25C82.2165 75.5 83 74.7165 83 73.75C83 72.7835 82.2165 72 81.25 72Z" fill="white"/>
<path d="M139.32 31.5078C139.32 30.1276 139.496 28.7995 139.848 27.5234C140.212 26.2344 140.74 25.0365 141.43 23.9297C142.12 22.8229 142.966 21.8138 143.969 20.9023C144.971 19.9909 146.111 19.2096 147.387 18.5586C148.676 17.9076 150.095 17.4062 151.645 17.0547C153.194 16.6901 154.861 16.5078 156.645 16.5078C157.79 16.5078 158.884 16.5794 159.926 16.7227C160.98 16.8659 161.97 17.0677 162.895 17.3281C163.819 17.5755 164.672 17.8685 165.453 18.207C166.247 18.5326 166.964 18.8776 167.602 19.2422L165.922 22.5234C165.193 22.1719 164.359 21.8789 163.422 21.6445C162.497 21.3971 161.534 21.2734 160.531 21.2734C159.19 21.2734 157.947 21.5143 156.801 21.9961C155.655 22.4779 154.665 23.1615 153.832 24.0469C152.999 24.9323 152.341 26.0065 151.859 27.2695C151.391 28.5195 151.156 29.9258 151.156 31.4883C151.156 33.0378 151.391 34.444 151.859 35.707C152.328 36.957 152.973 38.0312 153.793 38.9297C154.626 39.8151 155.609 40.5052 156.742 41C157.888 41.4818 159.125 41.7227 160.453 41.7227C161.391 41.7227 162.328 41.612 163.266 41.3906C164.203 41.1562 165.062 40.8503 165.844 40.4727L167.523 43.7539C166.885 44.1315 166.176 44.4831 165.395 44.8086C164.613 45.1341 163.767 45.4271 162.855 45.6875C161.944 45.9349 160.967 46.1302 159.926 46.2734C158.884 46.4167 157.79 46.4883 156.645 46.4883C153.975 46.4883 151.566 46.0977 149.418 45.3164C147.283 44.5221 145.466 43.4479 143.969 42.0938C142.471 40.7266 141.319 39.138 140.512 37.3281C139.717 35.5052 139.32 33.5651 139.32 31.5078ZM172.113 16.9766H180.102L191.078 32.1719L201.508 16.9766H209.281V46H198.012V31.1758L187.191 46.3711L176.41 31.1758V46H172.113V16.9766ZM217.113 39.5547C218.493 40.2578 219.939 40.7852 221.449 41.1367C222.96 41.4883 224.366 41.6641 225.668 41.6641C227.165 41.6641 228.259 41.4492 228.949 41.0195C229.652 40.5898 230.004 40.0039 230.004 39.2617C230.004 39.0273 229.958 38.7865 229.867 38.5391C229.789 38.2917 229.626 38.0508 229.379 37.8164C229.145 37.569 228.812 37.3281 228.383 37.0938C227.966 36.8464 227.419 36.6055 226.742 36.3711L223.246 35.1797C220.746 34.3203 218.865 33.1615 217.602 31.7031C216.339 30.2318 215.707 28.487 215.707 26.4688C215.707 25.1667 215.98 23.9167 216.527 22.7188C217.074 21.5078 217.901 20.4466 219.008 19.5352C220.115 18.6107 221.508 17.875 223.188 17.3281C224.88 16.7812 226.859 16.5078 229.125 16.5078C230.245 16.5078 231.319 16.5729 232.348 16.7031C233.376 16.8333 234.34 17.0026 235.238 17.2109C236.15 17.4193 236.983 17.6602 237.738 17.9336C238.493 18.194 239.158 18.4544 239.73 18.7148L237.621 22.5234C237.204 22.263 236.762 22.0352 236.293 21.8398C235.837 21.6445 235.375 21.4818 234.906 21.3516C234.451 21.2214 234.001 21.1237 233.559 21.0586C233.116 20.9935 232.712 20.9609 232.348 20.9609C231.723 20.9609 231.176 21.0456 230.707 21.2148C230.238 21.3711 229.841 21.5859 229.516 21.8594C229.203 22.1198 228.962 22.4193 228.793 22.7578C228.637 23.0833 228.559 23.4089 228.559 23.7344C228.559 24.0208 228.624 24.3008 228.754 24.5742C228.897 24.8346 229.132 25.0951 229.457 25.3555C229.796 25.6029 230.232 25.8568 230.766 26.1172C231.312 26.3646 231.99 26.625 232.797 26.8984L235.141 27.6797C237.68 28.526 239.62 29.6914 240.961 31.1758C242.302 32.6602 242.973 34.457 242.973 36.5664C242.973 37.9987 242.647 39.3203 241.996 40.5312C241.358 41.7422 240.401 42.7904 239.125 43.6758C237.849 44.5482 236.26 45.2318 234.359 45.7266C232.471 46.2083 230.277 46.4492 227.777 46.4492C226.579 46.4492 225.421 46.3841 224.301 46.2539C223.194 46.1367 222.107 45.9544 221.039 45.707C219.984 45.4596 218.943 45.1471 217.914 44.7695C216.885 44.3919 215.857 43.9492 214.828 43.4414L217.113 39.5547Z" fill="black"/>
<path d="M143.836 71.5078C143.589 71.5078 143.387 71.4557 143.23 71.3516C143.074 71.2474 142.996 71.0651 142.996 70.8047C142.996 70.5443 143.074 70.3685 143.23 70.2773C143.4 70.1732 143.602 70.1211 143.836 70.1211H151.805C152.026 70.1211 152.215 70.1732 152.371 70.2773C152.527 70.3685 152.605 70.5443 152.605 70.8047C152.605 71.0521 152.527 71.2344 152.371 71.3516C152.228 71.4557 152.039 71.5078 151.805 71.5078H143.836ZM154.793 83.5977C153.803 83.5977 153.309 83.1029 153.309 82.1133V74.8477C153.309 74.3268 153.413 73.9688 153.621 73.7734C153.842 73.5651 154.122 73.4479 154.461 73.4219C154.812 73.3828 155.19 73.3633 155.594 73.3633L155.848 71.5078H153.699C153.465 71.5078 153.27 71.4557 153.113 71.3516C152.957 71.2474 152.879 71.0651 152.879 70.8047C152.879 70.5443 152.957 70.3685 153.113 70.2773C153.27 70.1732 153.465 70.1211 153.699 70.1211H160.281C160.516 70.1211 160.717 70.1732 160.887 70.2773C161.056 70.3685 161.141 70.5443 161.141 70.8047C161.141 71.0651 161.056 71.2474 160.887 71.3516C160.717 71.4557 160.516 71.5078 160.281 71.5078H157.469L157 73.3633H158.934C159.949 73.3633 160.457 73.8646 160.457 74.8672V82.0938C160.457 83.0964 159.949 83.5977 158.934 83.5977H154.793ZM152.723 87.4258C152.241 87.4258 152 87.1654 152 86.6445C152 86.5924 152.007 86.5404 152.02 86.4883C152.033 86.4362 152.046 86.3841 152.059 86.332C152.033 86.3451 151.876 86.3581 151.59 86.3711C151.316 86.3841 150.978 86.3906 150.574 86.3906C150.171 86.3906 149.76 86.3906 149.344 86.3906C148.927 86.3906 148.562 86.3841 148.25 86.3711C147.938 86.3711 147.736 86.3711 147.645 86.3711C146.733 86.3711 146.277 85.9219 146.277 85.0234V80.043C146.251 80.0951 146.18 80.1992 146.062 80.3555C145.958 80.5117 145.848 80.6615 145.73 80.8047C145.613 80.9479 145.516 81.0195 145.438 81.0195C145.346 81.0195 145.262 80.9935 145.184 80.9414C145.118 80.8763 145.066 80.8047 145.027 80.7266C144.988 80.8698 144.956 81.1628 144.93 81.6055C144.904 82.0352 144.865 82.5299 144.812 83.0898C144.76 83.6367 144.682 84.1771 144.578 84.7109C144.487 85.2448 144.357 85.681 144.188 86.0195C144.031 86.3711 143.823 86.5469 143.562 86.5469C143.055 86.5469 142.801 86.2865 142.801 85.7656C142.801 85.6615 142.827 85.5312 142.879 85.375C142.931 85.2188 142.977 85.0951 143.016 85.0039C143.198 84.4961 143.341 83.9102 143.445 83.2461C143.549 82.569 143.621 81.8659 143.66 81.1367C143.712 80.3945 143.745 79.6784 143.758 78.9883C143.771 78.2852 143.777 77.6667 143.777 77.1328C143.777 76.7161 143.771 76.306 143.758 75.9023C143.758 75.4987 143.751 75.0951 143.738 74.6914C143.738 74.2878 143.764 73.9297 143.816 73.6172C143.882 73.3047 144.025 73.0573 144.246 72.875C144.48 72.6927 144.832 72.6016 145.301 72.6016H150.809C151.759 72.6016 152.234 73.0638 152.234 73.9883C152.234 74.3789 152.221 74.75 152.195 75.1016C152.182 75.4531 152.078 75.7396 151.883 75.9609C151.688 76.1823 151.329 76.293 150.809 76.293H145.164L145.047 80.1992C145.216 79.8737 145.385 79.5547 145.555 79.2422C145.724 78.9297 145.887 78.6107 146.043 78.2852C146.121 78.1289 146.206 77.9141 146.297 77.6406C146.388 77.3542 146.505 77.0938 146.648 76.8594C146.792 76.625 146.974 76.5078 147.195 76.5078C147.599 76.5078 147.801 76.6901 147.801 77.0547C147.801 77.1849 147.736 77.3737 147.605 77.6211C147.488 77.8555 147.397 78.0312 147.332 78.1484H149.09C149.155 78.0052 149.24 77.8034 149.344 77.543C149.448 77.2826 149.578 77.0482 149.734 76.8398C149.891 76.6185 150.073 76.5078 150.281 76.5078C150.685 76.5078 150.887 76.6901 150.887 77.0547C150.887 77.2109 150.809 77.4062 150.652 77.6406C150.496 77.862 150.372 78.0312 150.281 78.1484H151.883C152.065 78.1484 152.221 78.1875 152.352 78.2656C152.482 78.3307 152.547 78.474 152.547 78.6953C152.547 78.9036 152.482 79.0469 152.352 79.125C152.221 79.1901 152.065 79.2227 151.883 79.2227H150.34V80.4922H151.648C151.831 80.4922 151.974 80.5312 152.078 80.6094C152.195 80.6875 152.254 80.8177 152.254 81C152.254 81.1823 152.195 81.3125 152.078 81.3906C151.961 81.4557 151.818 81.4883 151.648 81.4883H150.34V82.7969H151.648C151.818 82.7969 151.961 82.8359 152.078 82.9141C152.195 82.9792 152.254 83.1029 152.254 83.2852C152.254 83.4674 152.195 83.5977 152.078 83.6758C151.974 83.7539 151.831 83.793 151.648 83.793H150.34V85.2773H151.824C152.202 85.2773 152.391 85.4727 152.391 85.8633L152.371 85.9609V86C152.814 85.7396 153.224 85.4792 153.602 85.2188C153.979 84.9583 154.344 84.6393 154.695 84.2617C154.786 84.1576 154.891 84.0599 155.008 83.9688C155.125 83.8776 155.249 83.832 155.379 83.832C155.887 83.832 156.141 84.0729 156.141 84.5547C156.141 84.7109 156.049 84.9128 155.867 85.1602C155.685 85.3945 155.451 85.6419 155.164 85.9023C154.878 86.1628 154.572 86.4102 154.246 86.6445C153.934 86.8789 153.641 87.0677 153.367 87.2109C153.094 87.3542 152.879 87.4258 152.723 87.4258ZM145.164 75.1602H150.379C150.522 75.1602 150.626 75.1211 150.691 75.043C150.757 74.9518 150.789 74.8411 150.789 74.7109V74.1445C150.789 73.8711 150.652 73.7344 150.379 73.7344H145.574C145.288 73.7344 145.145 73.8711 145.145 74.1445V74.3789C145.145 74.5091 145.145 74.6393 145.145 74.7695C145.158 74.8997 145.164 75.0299 145.164 75.1602ZM154.715 76.293H158.992V75.2383C158.992 74.8737 158.81 74.6914 158.445 74.6914H155.262C154.897 74.6914 154.715 74.8737 154.715 75.2383V76.293ZM154.715 79.2422H158.992V77.5039H154.715V79.2422ZM147.449 80.4922H149.207V79.2227H147.742C147.664 79.2227 147.592 79.2552 147.527 79.3203C147.475 79.3724 147.449 79.4375 147.449 79.5156V80.4922ZM155.262 82.2695H158.445C158.81 82.2695 158.992 82.0807 158.992 81.7031V80.4531H154.715V81.7227C154.715 82.0872 154.897 82.2695 155.262 82.2695ZM147.449 82.7969H149.207V81.4883H147.449V82.7969ZM147.938 85.2773H149.207V83.793H147.449V84.7891C147.449 85.1146 147.612 85.2773 147.938 85.2773ZM160.398 87.3867C160.203 87.3867 159.943 87.276 159.617 87.0547C159.292 86.8464 158.953 86.5794 158.602 86.2539C158.263 85.9414 157.977 85.6289 157.742 85.3164C157.508 85.0039 157.391 84.75 157.391 84.5547C157.391 84.0599 157.638 83.8125 158.133 83.8125C158.25 83.8125 158.38 83.8646 158.523 83.9688C158.667 84.0599 158.803 84.1706 158.934 84.3008C159.077 84.418 159.181 84.5156 159.246 84.5938C159.467 84.8021 159.689 84.9974 159.91 85.1797C160.145 85.362 160.385 85.5443 160.633 85.7266C160.776 85.8177 160.906 85.9284 161.023 86.0586C161.141 86.1888 161.199 86.3451 161.199 86.5273C161.199 86.7878 161.134 86.9961 161.004 87.1523C160.874 87.3086 160.672 87.3867 160.398 87.3867ZM170.031 75.5117C169.706 75.5117 169.478 75.4141 169.348 75.2188C169.23 75.0234 169.172 74.7826 169.172 74.4961V73.0312C169.172 71.6901 169.842 71.0195 171.184 71.0195H176.965C176.965 70.7461 176.958 70.4727 176.945 70.1992C176.945 69.9128 177.004 69.6784 177.121 69.4961C177.251 69.3008 177.505 69.2031 177.883 69.2031C178.273 69.2031 178.527 69.2943 178.645 69.4766C178.775 69.6589 178.833 69.8932 178.82 70.1797C178.82 70.4531 178.82 70.7331 178.82 71.0195H184.699C185.389 71.0195 185.917 71.1823 186.281 71.5078C186.646 71.8203 186.828 72.3346 186.828 73.0508V74.4961C186.828 74.7826 186.763 75.0234 186.633 75.2188C186.516 75.4141 186.294 75.5117 185.969 75.5117C185.604 75.5117 185.363 75.4141 185.246 75.2188C185.142 75.0104 185.09 74.7565 185.09 74.457C185.103 74.1576 185.116 73.8581 185.129 73.5586C185.142 73.2591 185.096 73.0117 184.992 72.8164C184.901 72.6081 184.68 72.5039 184.328 72.5039H171.672C171.32 72.5039 171.092 72.6081 170.988 72.8164C170.897 73.0117 170.858 73.2591 170.871 73.5586C170.884 73.8581 170.897 74.1576 170.91 74.457C170.923 74.7565 170.871 75.0104 170.754 75.2188C170.65 75.4141 170.409 75.5117 170.031 75.5117ZM169.68 82.2305C169.094 82.2305 168.801 81.9505 168.801 81.3906C168.801 81.1953 168.866 81.0391 168.996 80.9219C169.139 80.8047 169.309 80.7135 169.504 80.6484C169.699 80.5833 169.868 80.5378 170.012 80.5117C171.118 80.2643 172.212 79.9974 173.293 79.7109C174.374 79.4245 175.435 79.0534 176.477 78.5977C175.943 78.2201 175.435 77.8099 174.953 77.3672C174.484 76.9115 174.061 76.4232 173.684 75.9023C173.514 76.0456 173.26 76.2669 172.922 76.5664C172.596 76.8529 172.232 77.1523 171.828 77.4648C171.424 77.7773 171.04 78.0443 170.676 78.2656C170.311 78.487 170.012 78.5977 169.777 78.5977C169.27 78.5977 169.016 78.3372 169.016 77.8164C169.016 77.6602 169.087 77.5104 169.23 77.3672C169.387 77.2109 169.556 77.0742 169.738 76.957C169.934 76.8398 170.083 76.7487 170.188 76.6836C170.839 76.293 171.457 75.8633 172.043 75.3945C172.642 74.9258 173.182 74.4115 173.664 73.8516C173.794 73.7083 173.911 73.5586 174.016 73.4023C174.133 73.2461 174.25 73.0964 174.367 72.9531C174.471 72.8359 174.582 72.7383 174.699 72.6602C174.816 72.582 174.96 72.543 175.129 72.543C175.311 72.543 175.507 72.5755 175.715 72.6406C175.923 72.7057 176.027 72.862 176.027 73.1094C176.027 73.2526 175.949 73.4284 175.793 73.6367C175.637 73.8451 175.513 74.0013 175.422 74.1055H182.961C183.247 74.1055 183.534 74.1576 183.82 74.2617C184.107 74.3529 184.25 74.5807 184.25 74.9453C184.25 75.1276 184.12 75.3555 183.859 75.6289C183.599 75.9023 183.267 76.1888 182.863 76.4883C182.473 76.7878 182.056 77.0807 181.613 77.3672C181.184 77.6536 180.786 77.9076 180.422 78.1289C180.057 78.3372 179.79 78.4935 179.621 78.5977C180.702 79.0273 181.796 79.3659 182.902 79.6133C184.009 79.8477 185.122 80.0755 186.242 80.2969C186.503 80.349 186.724 80.4401 186.906 80.5703C187.102 80.6875 187.199 80.9023 187.199 81.2148C187.199 81.7878 186.906 82.0742 186.32 82.0742C185.982 82.0742 185.526 82.0156 184.953 81.8984C184.393 81.7682 183.781 81.6055 183.117 81.4102C182.453 81.2148 181.789 81 181.125 80.7656C180.461 80.5312 179.849 80.3034 179.289 80.082C178.729 79.8477 178.28 79.6458 177.941 79.4766C177.147 79.8542 176.34 80.1992 175.52 80.5117C174.699 80.8242 173.866 81.1107 173.02 81.3711C172.863 81.4232 172.629 81.4948 172.316 81.5859C172.017 81.6771 171.691 81.7747 171.34 81.8789C171.001 81.9701 170.676 82.0547 170.363 82.1328C170.064 82.1979 169.836 82.2305 169.68 82.2305ZM178.078 77.875C178.169 77.8359 178.339 77.7513 178.586 77.6211C178.846 77.4909 179.133 77.3411 179.445 77.1719C179.758 77.0026 180.064 76.8268 180.363 76.6445C180.676 76.4492 180.93 76.2669 181.125 76.0977C181.32 75.9284 181.418 75.7852 181.418 75.668C181.418 75.5638 181.353 75.5117 181.223 75.5117H175.09C175.507 76.0065 175.969 76.4492 176.477 76.8398C176.984 77.2174 177.518 77.5625 178.078 77.875ZM172.922 87.0938C171.828 87.0938 171.281 86.5469 171.281 85.4531L171.301 83.4609C171.301 82.888 171.444 82.4323 171.73 82.0938C172.03 81.7552 172.479 81.5859 173.078 81.5859H182.922C183.534 81.5859 183.983 81.7552 184.27 82.0938C184.556 82.4323 184.699 82.888 184.699 83.4609L184.719 85.4531C184.719 86.5469 184.172 87.0938 183.078 87.0938H172.922ZM173.625 85.668H182.375C182.779 85.668 182.98 85.4661 182.98 85.0625V83.5781C182.98 83.1745 182.779 82.9727 182.375 82.9727H173.625C173.221 82.9727 173.02 83.1745 173.02 83.5781V85.0625C173.02 85.4661 173.221 85.668 173.625 85.668ZM195.68 74.0078C195.198 74.0078 194.957 73.7604 194.957 73.2656C194.957 73.1094 195.022 72.9596 195.152 72.8164C195.283 72.6732 195.4 72.556 195.504 72.4648C195.921 72.1003 196.298 71.7292 196.637 71.3516C196.975 70.974 197.294 70.5508 197.594 70.082C197.711 69.8997 197.861 69.7109 198.043 69.5156C198.225 69.3073 198.434 69.2031 198.668 69.2031C198.876 69.2031 199.072 69.2422 199.254 69.3203C199.436 69.3854 199.527 69.5482 199.527 69.8086C199.527 69.9258 199.456 70.0885 199.312 70.2969C199.182 70.4922 199.085 70.6419 199.02 70.7461H203.121C203.355 70.7461 203.544 70.7982 203.688 70.9023C203.831 71.0065 203.902 71.1823 203.902 71.4297C203.902 71.6771 203.831 71.8529 203.688 71.957C203.544 72.0612 203.355 72.1133 203.121 72.1133H201.09C201.142 72.2435 201.22 72.4518 201.324 72.7383C201.428 73.0117 201.48 73.2201 201.48 73.3633C201.48 73.6107 201.402 73.7799 201.246 73.8711C201.103 73.9622 200.921 74.0078 200.699 74.0078C200.413 74.0078 200.198 73.8971 200.055 73.6758C199.911 73.4414 199.807 73.1745 199.742 72.875C199.677 72.5755 199.612 72.3216 199.547 72.1133H198.004C197.9 72.2305 197.75 72.3932 197.555 72.6016C197.372 72.8099 197.171 73.0247 196.949 73.2461C196.728 73.4544 196.507 73.6367 196.285 73.793C196.064 73.9362 195.862 74.0078 195.68 74.0078ZM208.941 74.0078C208.668 74.0078 208.453 73.8971 208.297 73.6758C208.154 73.4414 208.043 73.1745 207.965 72.875C207.887 72.5755 207.809 72.3216 207.73 72.1133H205.836C205.745 72.2305 205.621 72.3802 205.465 72.5625C205.309 72.7448 205.139 72.9076 204.957 73.0508C204.775 73.194 204.592 73.2656 204.41 73.2656C204.189 73.2656 204.007 73.2135 203.863 73.1094C203.72 73.0052 203.648 72.8294 203.648 72.582C203.648 72.4518 203.694 72.3346 203.785 72.2305C203.876 72.1133 203.967 72.0156 204.059 71.9375C204.332 71.6771 204.573 71.4102 204.781 71.1367C205.003 70.8503 205.198 70.5443 205.367 70.2188C205.458 70.0365 205.589 69.8216 205.758 69.5742C205.927 69.3268 206.135 69.2031 206.383 69.2031C206.604 69.2031 206.786 69.2487 206.93 69.3398C207.086 69.431 207.164 69.6003 207.164 69.8477C207.164 69.9779 207.112 70.1341 207.008 70.3164C206.904 70.4987 206.819 70.6419 206.754 70.7461H212.281C212.516 70.7461 212.704 70.7982 212.848 70.9023C212.991 71.0065 213.062 71.1823 213.062 71.4297C213.062 71.6771 212.991 71.8529 212.848 71.957C212.704 72.0612 212.516 72.1133 212.281 72.1133H209.352C209.417 72.2565 209.495 72.4648 209.586 72.7383C209.69 72.9987 209.742 73.207 209.742 73.3633C209.742 73.6107 209.664 73.7799 209.508 73.8711C209.352 73.9622 209.163 74.0078 208.941 74.0078ZM196.07 79.2227C195.523 79.2227 195.25 78.9362 195.25 78.3633V76.332C195.25 75.2383 195.816 74.6914 196.949 74.6914H202.945C202.945 74.457 202.952 74.2357 202.965 74.0273C202.978 73.806 203.043 73.6302 203.16 73.5C203.277 73.3568 203.492 73.2852 203.805 73.2852C204.13 73.2852 204.352 73.3568 204.469 73.5C204.586 73.6302 204.651 73.7995 204.664 74.0078C204.677 74.2161 204.684 74.444 204.684 74.6914H210.836C211.409 74.6914 211.865 74.8021 212.203 75.0234C212.555 75.2318 212.73 75.6549 212.73 76.293V78.3633C212.73 78.9362 212.457 79.2227 211.91 79.2227C211.363 79.2227 211.09 78.9362 211.09 78.3633V76.7227C211.09 76.2799 210.849 76.0586 210.367 76.0586H197.633C197.464 76.0586 197.294 76.1042 197.125 76.1953C196.969 76.2865 196.891 76.4362 196.891 76.6445V78.3633C196.891 78.9362 196.617 79.2227 196.07 79.2227ZM199.273 87.0742C198.31 87.0742 197.828 86.5924 197.828 85.6289V78.6172C197.828 78.1745 197.932 77.8229 198.141 77.5625C198.362 77.3021 198.707 77.1719 199.176 77.1719H208.629C209.618 77.1719 210.113 77.6862 210.113 78.7148V79.7891C210.113 80.2969 209.996 80.694 209.762 80.9805C209.527 81.2539 209.15 81.3906 208.629 81.3906H199.43V82.543H209.684C210.204 82.543 210.602 82.6406 210.875 82.8359C211.148 83.0312 211.285 83.4154 211.285 83.9883V85.6484C211.285 86.599 210.803 87.0742 209.84 87.0742H199.273ZM199.43 80.1016H207.887C208.069 80.1016 208.219 80.056 208.336 79.9648C208.453 79.8607 208.512 79.7174 208.512 79.5352V79.0078C208.512 78.8255 208.447 78.6888 208.316 78.5977C208.199 78.5065 208.056 78.4609 207.887 78.4609H200.035C199.853 78.4609 199.703 78.5195 199.586 78.6367C199.482 78.7539 199.43 78.9036 199.43 79.0859V80.1016ZM200.035 85.7852H209.059C209.475 85.7852 209.684 85.5833 209.684 85.1797V84.4375C209.684 84.2552 209.625 84.112 209.508 84.0078C209.391 83.8906 209.241 83.832 209.059 83.832H199.43V85.1602C199.43 85.3424 199.482 85.4922 199.586 85.6094C199.703 85.7266 199.853 85.7852 200.035 85.7852ZM226.406 86.957C226.159 86.957 225.944 86.9049 225.762 86.8008C225.579 86.6966 225.488 86.5013 225.488 86.2148C225.488 85.9284 225.579 85.7331 225.762 85.6289C225.944 85.5117 226.159 85.4531 226.406 85.4531H232.324V82.7578H228.555C228.307 82.7578 228.092 82.7057 227.91 82.6016C227.741 82.4974 227.656 82.3021 227.656 82.0156C227.656 81.7292 227.741 81.5339 227.91 81.4297C228.092 81.3255 228.307 81.2734 228.555 81.2734H232.324V79.125H229.902C229.316 79.125 228.854 79.0208 228.516 78.8125C228.19 78.6042 228.027 78.168 228.027 77.5039V71.6641C228.027 70.5703 228.568 70.0234 229.648 70.0234H236.602C237.695 70.0234 238.242 70.5703 238.242 71.6641V77.5039C238.242 78.5977 237.695 79.1445 236.602 79.1445L233.809 79.125V81.2734H237.617C237.878 81.2734 238.086 81.332 238.242 81.4492C238.411 81.5534 238.496 81.7422 238.496 82.0156C238.496 82.2891 238.411 82.4844 238.242 82.6016C238.086 82.7057 237.878 82.7578 237.617 82.7578H233.809V85.4531H238.281C238.542 85.4531 238.757 85.5117 238.926 85.6289C239.108 85.7331 239.199 85.9284 239.199 86.2148C239.199 86.5013 239.108 86.6966 238.926 86.8008C238.757 86.9049 238.542 86.957 238.281 86.957H226.406ZM221.641 85.3945C221.081 85.3945 220.801 85.1081 220.801 84.5352C220.801 84.2487 220.911 84.0339 221.133 83.8906C221.354 83.7474 221.582 83.6497 221.816 83.5977L223.535 83.1484V77.7578H222.051C221.79 77.7578 221.569 77.7057 221.387 77.6016C221.204 77.4844 221.113 77.2826 221.113 76.9961C221.113 76.6966 221.204 76.4948 221.387 76.3906C221.569 76.2865 221.79 76.2344 222.051 76.2344H223.535V71.8984H221.797C221.536 71.8984 221.315 71.8464 221.133 71.7422C220.951 71.625 220.859 71.4232 220.859 71.1367C220.859 70.8372 220.951 70.6354 221.133 70.5312C221.315 70.4141 221.536 70.3555 221.797 70.3555H226.582C226.842 70.3555 227.064 70.4141 227.246 70.5312C227.428 70.6354 227.52 70.8372 227.52 71.1367C227.52 71.4232 227.428 71.625 227.246 71.7422C227.064 71.8464 226.842 71.8984 226.582 71.8984H225.117V76.2344C225.273 76.2344 225.469 76.2279 225.703 76.2148C225.951 76.1888 226.191 76.1888 226.426 76.2148C226.673 76.2409 226.875 76.3125 227.031 76.4297C227.188 76.5469 227.266 76.7357 227.266 76.9961C227.266 77.2565 227.188 77.4453 227.031 77.5625C226.875 77.6797 226.673 77.7513 226.426 77.7773C226.191 77.8034 225.951 77.8099 225.703 77.7969C225.469 77.7708 225.273 77.7578 225.117 77.7578V82.7188C225.156 82.7057 225.26 82.6797 225.43 82.6406C225.612 82.5885 225.807 82.5365 226.016 82.4844C226.237 82.4193 226.426 82.3672 226.582 82.3281C226.751 82.276 226.836 82.25 226.836 82.25C227.318 82.25 227.559 82.5039 227.559 83.0117C227.559 83.1289 227.526 83.2656 227.461 83.4219C227.396 83.5651 227.305 83.6562 227.188 83.6953C227.188 83.6953 227.018 83.7539 226.68 83.8711C226.341 83.9883 225.911 84.1315 225.391 84.3008C224.883 84.457 224.362 84.6198 223.828 84.7891C223.294 84.9583 222.826 85.1016 222.422 85.2188C222.018 85.3359 221.758 85.3945 221.641 85.3945ZM229.551 73.8125H232.324V71.4492H230.234C230.026 71.4492 229.857 71.5143 229.727 71.6445C229.609 71.7617 229.551 71.9245 229.551 72.1328V73.8125ZM233.809 73.8125H236.66V72.1328C236.66 71.9245 236.595 71.7617 236.465 71.6445C236.348 71.5143 236.185 71.4492 235.977 71.4492H233.809V73.8125ZM230.234 77.7188H232.324V75.1406H229.551V77.0352C229.551 77.2435 229.609 77.4128 229.727 77.543C229.857 77.6602 230.026 77.7188 230.234 77.7188ZM233.809 77.7188H235.977C236.185 77.7188 236.348 77.6602 236.465 77.543C236.595 77.4128 236.66 77.2435 236.66 77.0352V75.1406H233.809V77.7188ZM150.457 93.3828C150.366 93.3828 150.229 93.3503 150.047 93.2852C149.878 93.207 149.702 93.1289 149.52 93.0508C149.35 92.9596 149.22 92.8945 149.129 92.8555C148.725 92.6602 148.322 92.4909 147.918 92.3477C147.514 92.1914 147.104 92.0417 146.688 91.8984C146.505 91.8333 146.323 91.7422 146.141 91.625C145.971 91.4948 145.887 91.3125 145.887 91.0781C145.887 90.7526 145.978 90.5182 146.16 90.375C146.342 90.2318 146.59 90.1602 146.902 90.1602C146.993 90.1602 147.163 90.1992 147.41 90.2773C147.671 90.3555 147.951 90.4466 148.25 90.5508C148.549 90.6549 148.823 90.7591 149.07 90.8633C149.331 90.9544 149.507 91.0195 149.598 91.0586C149.767 91.1237 149.995 91.2214 150.281 91.3516C150.568 91.4818 150.822 91.638 151.043 91.8203C151.277 92.0026 151.395 92.2109 151.395 92.4453C151.395 93.0703 151.082 93.3828 150.457 93.3828ZM146.57 106.137C145.906 106.137 145.574 105.805 145.574 105.141C145.574 104.841 145.685 104.626 145.906 104.496C146.141 104.353 146.382 104.255 146.629 104.203C147.085 104.099 147.54 104.001 147.996 103.91C148.452 103.806 148.901 103.689 149.344 103.559C151.453 102.908 153.276 101.951 154.812 100.688C156.349 99.4245 157.553 97.7708 158.426 95.7266C158.53 95.4661 158.667 95.1927 158.836 94.9062C159.005 94.6198 159.259 94.4766 159.598 94.4766C160.197 94.4766 160.496 94.7695 160.496 95.3555C160.496 95.6029 160.418 95.9154 160.262 96.293C160.105 96.6576 159.93 97.0221 159.734 97.3867C159.552 97.7383 159.396 98.0247 159.266 98.2461C158.38 99.7565 157.312 101.052 156.062 102.133C154.812 103.201 153.426 104.06 151.902 104.711C150.379 105.362 148.758 105.818 147.039 106.078C146.974 106.091 146.896 106.104 146.805 106.117C146.714 106.13 146.635 106.137 146.57 106.137ZM149.461 98.5977C149.357 98.5977 149.142 98.5456 148.816 98.4414C148.491 98.3372 148.12 98.2201 147.703 98.0898C147.299 97.9466 146.909 97.8099 146.531 97.6797C146.167 97.5495 145.887 97.4583 145.691 97.4062C145.483 97.3411 145.268 97.25 145.047 97.1328C144.839 97.0156 144.734 96.8268 144.734 96.5664C144.734 96.2148 144.832 95.9674 145.027 95.8242C145.236 95.681 145.503 95.6094 145.828 95.6094C146.115 95.6094 146.473 95.668 146.902 95.7852C147.332 95.8893 147.762 96.0195 148.191 96.1758C148.621 96.319 148.966 96.4427 149.227 96.5469C149.37 96.599 149.539 96.6771 149.734 96.7812C149.93 96.8724 150.099 96.9896 150.242 97.1328C150.385 97.263 150.457 97.4258 150.457 97.6211C150.457 97.8685 150.353 98.0964 150.145 98.3047C149.949 98.5 149.721 98.5977 149.461 98.5977ZM170.773 106.059C170.135 106.059 169.816 105.746 169.816 105.121C169.816 104.835 169.94 104.62 170.188 104.477C170.435 104.32 170.663 104.197 170.871 104.105C173.046 103.181 174.979 101.944 176.672 100.395C178.365 98.8451 179.784 97.0417 180.93 94.9844C180.995 94.8802 181.073 94.737 181.164 94.5547C181.255 94.3724 181.34 94.1901 181.418 94.0078C181.496 93.8255 181.535 93.6758 181.535 93.5586C181.535 93.3503 181.464 93.2135 181.32 93.1484C181.19 93.0703 181.034 93.0312 180.852 93.0312H172.082C171.783 93.0312 171.522 92.9661 171.301 92.8359C171.092 92.7057 170.988 92.4714 170.988 92.1328C170.988 91.7943 171.092 91.5664 171.301 91.4492C171.522 91.319 171.783 91.2539 172.082 91.2539H182.082C182.512 91.2539 182.889 91.4102 183.215 91.7227C183.553 92.0221 183.723 92.3932 183.723 92.8359C183.723 93.2786 183.592 93.7995 183.332 94.3984C183.072 94.9974 182.753 95.6094 182.375 96.2344C181.997 96.8464 181.613 97.4193 181.223 97.9531C180.845 98.487 180.526 98.9232 180.266 99.2617C180.448 99.3919 180.715 99.6003 181.066 99.8867C181.431 100.173 181.841 100.505 182.297 100.883C182.753 101.247 183.208 101.638 183.664 102.055C184.133 102.458 184.562 102.855 184.953 103.246C185.344 103.637 185.656 103.995 185.891 104.32C186.138 104.633 186.262 104.88 186.262 105.062C186.262 105.727 185.917 106.059 185.227 106.059C184.979 106.059 184.745 105.961 184.523 105.766C184.315 105.557 184.139 105.368 183.996 105.199C183.28 104.327 182.518 103.507 181.711 102.738C180.917 101.957 180.057 101.234 179.133 100.57C178.221 101.495 177.238 102.348 176.184 103.129C175.129 103.91 174.022 104.607 172.863 105.219C172.72 105.297 172.512 105.408 172.238 105.551C171.978 105.681 171.711 105.798 171.438 105.902C171.164 106.007 170.943 106.059 170.773 106.059ZM198.941 92.5625C198.642 92.5625 198.388 92.4974 198.18 92.3672C197.971 92.237 197.867 92.0091 197.867 91.6836C197.867 91.3451 197.971 91.1172 198.18 91C198.388 90.8698 198.642 90.8047 198.941 90.8047H209.117C209.417 90.8047 209.671 90.8698 209.879 91C210.1 91.1172 210.211 91.3451 210.211 91.6836C210.211 92.0091 210.1 92.237 209.879 92.3672C209.671 92.4974 209.417 92.5625 209.117 92.5625H198.941ZM198.414 106.898C197.737 106.898 197.398 106.579 197.398 105.941C197.398 105.733 197.483 105.57 197.652 105.453C197.822 105.323 198.017 105.219 198.238 105.141C198.46 105.062 198.642 104.997 198.785 104.945C200.426 104.385 201.63 103.487 202.398 102.25C203.18 101 203.583 99.5352 203.609 97.8555H196.52C196.22 97.8555 195.966 97.7904 195.758 97.6602C195.549 97.5299 195.445 97.3021 195.445 96.9766C195.445 96.638 195.549 96.4102 195.758 96.293C195.966 96.1628 196.22 96.0977 196.52 96.0977H211.52C211.819 96.0977 212.073 96.1628 212.281 96.293C212.49 96.4102 212.594 96.638 212.594 96.9766C212.594 97.3021 212.49 97.5299 212.281 97.6602C212.073 97.7904 211.819 97.8555 211.52 97.8555H205.504C205.439 98.8841 205.315 99.8086 205.133 100.629C204.964 101.449 204.697 102.185 204.332 102.836C203.967 103.487 203.473 104.086 202.848 104.633C202.236 105.18 201.454 105.694 200.504 106.176C200.23 106.306 199.892 106.456 199.488 106.625C199.085 106.807 198.727 106.898 198.414 106.898ZM237.461 106.176C237.253 106.176 237.064 106.091 236.895 105.922C236.738 105.753 236.595 105.544 236.465 105.297C236.335 105.036 236.217 104.783 236.113 104.535C236.022 104.288 235.944 104.086 235.879 103.93C234.03 104.294 232.181 104.568 230.332 104.75C228.483 104.932 226.628 105.134 224.766 105.355C224.427 105.395 224.082 105.447 223.73 105.512C223.379 105.564 223.034 105.59 222.695 105.59C222.005 105.59 221.66 105.258 221.66 104.594C221.66 104.32 221.745 104.118 221.914 103.988C222.083 103.845 222.292 103.754 222.539 103.715C222.786 103.663 223.04 103.637 223.301 103.637C223.561 103.637 223.783 103.637 223.965 103.637L224.102 103.344C224.74 101.924 225.339 100.486 225.898 99.0273C226.458 97.569 226.979 96.1042 227.461 94.6328C227.643 94.0599 227.812 93.4935 227.969 92.9336C228.138 92.3737 228.314 91.8138 228.496 91.2539C228.587 90.9935 228.704 90.7721 228.848 90.5898C229.004 90.4076 229.232 90.3164 229.531 90.3164C229.831 90.3164 230.065 90.388 230.234 90.5312C230.404 90.6615 230.488 90.8828 230.488 91.1953C230.488 91.4818 230.397 91.931 230.215 92.543C230.033 93.1549 229.792 93.8646 229.492 94.6719C229.193 95.4792 228.861 96.319 228.496 97.1914C228.145 98.0638 227.793 98.9167 227.441 99.75C227.103 100.57 226.797 101.306 226.523 101.957C226.25 102.608 226.042 103.116 225.898 103.48C227.422 103.337 228.952 103.188 230.488 103.031C232.038 102.875 233.568 102.673 235.078 102.426C234.284 100.98 233.398 99.5807 232.422 98.2266C232.331 98.1094 232.227 97.9727 232.109 97.8164C232.005 97.6471 231.953 97.4844 231.953 97.3281C231.953 96.7943 232.227 96.5273 232.773 96.5273C232.995 96.5273 233.223 96.651 233.457 96.8984C233.704 97.1328 233.893 97.3281 234.023 97.4844C234.167 97.6536 234.368 97.9401 234.629 98.3438C234.902 98.7344 235.202 99.1901 235.527 99.7109C235.866 100.232 236.204 100.779 236.543 101.352C236.882 101.911 237.188 102.458 237.461 102.992C237.747 103.513 237.975 103.975 238.145 104.379C238.327 104.77 238.418 105.056 238.418 105.238C238.418 105.863 238.099 106.176 237.461 106.176Z" fill="black"/>
<line x1="115.998" y1="58.0137" x2="267.002" y2="58.0137" stroke="#6B3FA0" stroke-width="3"/>
</svg>
