<svg width="272" height="127" viewBox="0 0 272 127" fill="none" xmlns="http://www.w3.org/2000/svg">
<path opacity="0.55" d="M77 10H21C15.4772 10 11 14.4772 11 20V54C11 59.5228 15.4772 64 21 64H77C82.5229 64 87 59.5228 87 54V20C87 14.4772 82.5229 10 77 10Z" fill="#D4A898"/>
<path opacity="0.85" d="M85 18H29C23.4772 18 19 22.4772 19 28V62C19 67.5228 23.4772 72 29 72H85C90.5229 72 95 67.5228 95 62V28C95 22.4772 90.5229 18 85 18Z" fill="#C48E7A"/>
<path d="M93 26H37C31.4772 26 27 30.4772 27 36V70C27 75.5228 31.4772 80 37 80H93C98.5229 80 103 75.5228 103 70V36C103 30.4772 98.5229 26 93 26Z" fill="#B5735C"/>
<path d="M47 59C51.9706 59 56 54.9706 56 50C56 45.0294 51.9706 41 47 41C42.0294 41 38 45.0294 38 50C38 54.9706 42.0294 59 47 59Z" fill="white"/>
<path d="M35 68C43 60 51 60 59 68" stroke="white" stroke-width="3.5" stroke-linecap="round"/>
<path opacity="0.9" d="M89.25 44H70.75C69.7835 44 69 44.7835 69 45.75C69 46.7165 69.7835 47.5 70.75 47.5H89.25C90.2165 47.5 91 46.7165 91 45.75C91 44.7835 90.2165 44 89.25 44Z" fill="white"/>
<path opacity="0.7" d="M81.25 54H70.75C69.7835 54 69 54.7835 69 55.75C69 56.7165 69.7835 57.5 70.75 57.5H81.25C82.2165 57.5 83 56.7165 83 55.75C83 54.7835 82.2165 54 81.25 54Z" fill="white"/>
<path d="M146.903 36.68L147.663 34.2H149.623L148.823 44.32H147.223C146.663 41.8667 145.569 39.9333 143.943 38.52C142.343 37.1067 140.396 36.4 138.103 36.4C136.023 36.4 134.236 36.9467 132.743 38.04C131.276 39.1067 130.156 40.6533 129.383 42.68C128.609 44.68 128.223 47.08 128.223 49.88C128.223 53.9867 129.076 57.16 130.783 59.4C132.489 61.64 134.983 62.76 138.263 62.76C140.903 62.76 143.103 62.04 144.863 60.6C146.623 59.1333 147.876 56.9867 148.623 54.16H150.383V65H148.503L147.943 61.84C145.009 64.2133 141.449 65.4 137.263 65.4C134.036 65.4 131.223 64.7733 128.823 63.52C126.423 62.2667 124.556 60.5067 123.223 58.24C121.916 55.9467 121.263 53.24 121.263 50.12C121.263 47.6933 121.663 45.4933 122.463 43.52C123.263 41.52 124.383 39.8 125.823 38.36C127.289 36.8933 129.036 35.7733 131.063 35C133.089 34.2 135.316 33.8 137.743 33.8C139.369 33.8 140.889 34.0267 142.303 34.48C143.743 34.9333 145.276 35.6667 146.903 36.68ZM184.553 65.4L173.433 38.92H173.273V57.36C173.273 59.12 173.379 60.4267 173.593 61.28C173.806 62.1067 174.233 62.6533 174.872 62.92C175.539 63.1867 176.526 63.3467 177.833 63.4V65H165.513V63.4C166.846 63.3467 167.833 63.1867 168.473 62.92C169.139 62.6533 169.579 62.12 169.793 61.32C170.033 60.52 170.153 59.2933 170.153 57.64V41.56C170.153 40.04 170.046 38.8667 169.833 38.04C169.646 37.2133 169.246 36.64 168.633 36.32C168.046 35.9733 167.153 35.8 165.953 35.8V34.2H178.073L187.393 57.52H187.553L196.793 34.2H208.473V35.8C207.299 35.8 206.406 35.9733 205.793 36.32C205.206 36.64 204.819 37.24 204.633 38.12C204.446 38.9733 204.353 40.2133 204.353 41.84V57.36C204.353 59.12 204.459 60.4267 204.673 61.28C204.886 62.1067 205.313 62.6533 205.953 62.92C206.619 63.1867 207.606 63.3467 208.913 63.4V65H193.873V63.4C195.206 63.3467 196.193 63.1867 196.833 62.92C197.499 62.6533 197.939 62.12 198.153 61.32C198.366 60.52 198.473 59.2933 198.473 57.64V38.92H198.273L187.513 65.4H184.553ZM224.854 65L224.254 54.8H225.814C226.187 57.3067 227.2 59.2933 228.854 60.76C230.534 62.2267 232.574 62.96 234.974 62.96C236.974 62.96 238.587 62.5067 239.814 61.6C241.04 60.6667 241.654 59.4667 241.654 58C241.654 57.1467 241.454 56.4267 241.054 55.84C240.68 55.2533 239.947 54.68 238.854 54.12C237.787 53.5333 236.214 52.8533 234.134 52.08C232.08 51.28 230.374 50.4 229.014 49.44C227.654 48.48 226.64 47.4 225.974 46.2C225.307 45 224.974 43.6933 224.974 42.28C224.974 40.6 225.387 39.1333 226.214 37.88C227.067 36.6 228.227 35.6 229.694 34.88C231.187 34.16 232.907 33.8 234.854 33.8C237.494 33.8 239.96 34.6533 242.254 36.36L242.974 34.36H243.934L244.374 43H242.814C242.174 40.8133 241.174 39.1467 239.814 38C238.454 36.8267 236.88 36.24 235.094 36.24C233.467 36.24 232.134 36.6533 231.094 37.48C230.054 38.28 229.534 39.32 229.534 40.6C229.534 41.3467 229.707 42 230.054 42.56C230.427 43.0933 231.107 43.6267 232.094 44.16C233.08 44.6667 234.494 45.2667 236.334 45.96C238.814 46.8933 240.827 47.88 242.374 48.92C243.92 49.9333 245.04 51.04 245.734 52.24C246.454 53.4133 246.814 54.7467 246.814 56.24C246.814 58.0267 246.307 59.6133 245.294 61C244.28 62.3867 242.88 63.4667 241.094 64.24C239.307 65.0133 237.24 65.4 234.894 65.4C233.32 65.4 231.88 65.1867 230.574 64.76C229.267 64.3067 227.947 63.5867 226.614 62.6L225.814 65H224.854Z" fill="black"/>
<path d="M30.4 119.6C30.1667 119.667 30.05 119.6 30.05 119.4C30.05 119.217 30.1417 119.033 30.325 118.85C32.175 117.583 33.6083 116.167 34.625 114.6C35.875 115.35 36.5833 116 36.75 116.55L35.575 116.4C33.775 118 32.05 119.067 30.4 119.6ZM41.375 116.775C42.1583 117.242 42.6 117.617 42.7 117.9C42.75 118.05 42.775 118.225 42.775 118.425C42.775 118.608 42.75 118.867 42.7 119.2C42.6333 119.533 42.5167 119.7 42.35 119.7C41.8667 119.7 41.225 119.167 40.425 118.1C39.6083 117.05 38.525 116.167 37.175 115.45C37.0417 115.283 36.975 115.175 36.975 115.125C36.975 114.958 37.075 114.875 37.275 114.875C37.875 114.875 39.2417 115.508 41.375 116.775ZM32.2 101.275C32.45 101.275 33.2583 101.658 34.625 102.425H35.175L35.9 99.275H33.05C32.5667 99.3083 32.25 99.375 32.1 99.475C31.9333 99.575 31.8333 99.6333 31.8 99.65L31 98.4C32.0333 98.5833 32.8667 98.675 33.5 98.675H39.5L41.05 96.95C42.1333 97.75 42.7833 98.425 43 98.975C43 99.175 42.775 99.275 42.325 99.275H37.875L36.3 102.425H39.025L40.325 101.1C41.7083 101.867 42.4 102.417 42.4 102.75L41.5 103.725V112.975L41.65 114.525C41.6 114.858 40.9583 115.025 39.725 115.025C39.4083 115.025 39.25 114.858 39.25 114.525L39.325 113.875H34.225C34.225 113.925 34.225 113.975 34.225 114.025C34.225 114.692 33.7167 115.025 32.7 115.025H32.625C32.3083 115.025 32.15 114.85 32.15 114.5C32.15 114.383 32.1833 113.958 32.25 113.225V102.8L32.125 101.375C32.125 101.308 32.15 101.275 32.2 101.275ZM39.35 113.25V110.075H34.175V113.25H39.35ZM34.175 103.325V105.925H39.35V103.475C39.35 103.325 39.3 103.183 39.2 103.05H34.2C34.1833 103.1 34.175 103.192 34.175 103.325ZM39.35 109.45V106.55H34.175V109.45H39.35ZM22.25 113.725C22.1167 113.842 22.0167 113.875 21.95 113.825C21.8833 113.775 21.8917 113.617 21.975 113.35C23.025 110.333 23.5917 107.608 23.675 105.175C25.6417 105.825 26.625 106.367 26.625 106.8C26.625 106.833 26.55 106.85 26.4 106.85C26.25 106.85 25.9 106.8 25.35 106.7C25 108.733 23.9667 111.075 22.25 113.725ZM27.05 109.275L26.2 109.25C26.5833 108.35 26.8583 107.3 27.025 106.1C28.775 106.733 29.65 107.183 29.65 107.45C29.65 107.517 29.5583 107.55 29.375 107.55C29.2083 107.55 28.9333 107.508 28.55 107.425C28.2333 107.958 27.7333 108.575 27.05 109.275ZM26.5 116.775V114.725H24.8V116.775H26.5ZM26.5 114.1V112.15H24.8V114.1H26.5ZM26.5 111.525V109.725H24.8V111.525H26.5ZM24.35 109.1H28.75L30.05 107.625C31.1167 108.642 31.65 109.267 31.65 109.5C31.65 109.65 31.4667 109.725 31.1 109.725H28.35V111.525H28.75L29.925 110.175C30.825 111.175 31.275 111.733 31.275 111.85C31.275 112.05 31.0917 112.15 30.725 112.15H28.35V114.1H28.725L29.9 112.75C30.8167 113.767 31.275 114.35 31.275 114.5C31.275 114.65 31.0917 114.725 30.725 114.725H28.35V116.775H28.9L30.15 115.3C31.2167 116.317 31.75 116.942 31.75 117.175C31.75 117.408 31.5667 117.525 31.2 117.525H24.85C24.8833 117.975 24.9 118.333 24.9 118.6C24.9 119.017 24.3667 119.225 23.3 119.225C23 119.225 22.85 119.058 22.85 118.725L22.9 116.725V110.75C23.8167 109.917 24.3 109.367 24.35 109.1ZM30.65 99.425H22.325C22.075 99.425 21.425 99.55 20.375 99.8L19.35 98.4C19.9167 98.6833 20.7417 98.825 21.825 98.825H27.6C28.0167 98.3583 28.5167 97.8083 29.1 97.175C30.4667 98.3083 31.15 98.975 31.15 99.175C31.15 99.3417 30.9833 99.425 30.65 99.425ZM20.575 105.875V101.65L20.425 100.475C20.4083 100.408 20.4333 100.375 20.5 100.375C20.55 100.375 20.8333 100.475 21.35 100.675C21.8667 100.892 22.4417 101.167 23.075 101.5H27.275L28.775 100.05C30.275 100.933 31.025 101.575 31.025 101.975C31.025 102.058 30.85 102.217 30.5 102.45C30.15 102.7 29.975 102.908 29.975 103.075V104.1L30.125 105.925C30.0917 106.258 29.5083 106.425 28.375 106.425C28.1083 106.425 27.9417 106.233 27.875 105.85C27.9083 105.517 27.925 105.208 27.925 104.925H22.525C22.525 111.708 21.3917 116.6 19.125 119.6C18.875 119.6 18.75 119.392 18.75 118.975C18.8833 118.708 18.975 118.508 19.025 118.375C20.0583 115.542 20.575 111.375 20.575 105.875ZM22.575 104.275H27.975V102.675C27.975 102.458 27.925 102.283 27.825 102.15H22.575V104.275ZM64.25 103.625H56.45L57.275 102.975H64.2L65.575 101.45C67.0917 102.383 67.85 103.075 67.85 103.525C67.85 103.808 67.6417 104.008 67.225 104.125C62.625 108.425 56.875 111.225 49.975 112.525C49.7417 112.575 49.625 112.433 49.625 112.1C49.625 111.867 49.7917 111.7 50.125 111.6C56.525 109.717 61.2833 107.175 64.4 103.975C64.3667 103.858 64.3167 103.742 64.25 103.625ZM51.15 108.75C51.0833 108.75 51.025 108.725 50.975 108.675C50.7083 108.592 50.6 108.458 50.65 108.275C50.7 108.108 50.85 107.95 51.1 107.8C54 105.967 56.275 103.558 57.925 100.575C59.875 100.958 60.8417 101.383 60.825 101.85L59.325 102C57.8917 104.483 55.1667 106.733 51.15 108.75ZM65.6 112.675H56.3C56.3 112.842 56.2917 112.942 56.275 112.975V117.175H65.75V113.275C65.75 113.042 65.7 112.842 65.6 112.675ZM56.775 112.075H65C65.2167 111.975 65.5083 111.767 65.875 111.45C66.225 111.133 66.4583 110.975 66.575 110.975C66.8583 110.975 67.2833 111.175 67.85 111.575C68.4167 111.975 68.7 112.258 68.7 112.425L67.775 113.475V117.1L67.925 119.1C67.8917 119.433 67.2917 119.6 66.125 119.6C65.775 119.6 65.6 119.392 65.6 118.975C65.6 118.558 65.6417 118.167 65.725 117.8H56.3L56.35 119.025C56.3667 119.408 55.7917 119.6 54.625 119.6C54.325 119.6 54.1583 119.4 54.125 119L54.25 117.1V112.375L54.125 111.2C54.1083 111.117 54.1333 111.075 54.2 111.075L56.775 112.075ZM68.8 100.275H53.175C53.0583 101.408 52.8 102.275 52.4 102.875C51.9833 103.475 51.5167 103.775 51 103.775C50.2333 103.775 49.85 103.55 49.85 103.1C49.85 102.65 50.3 102.017 51.2 101.2C51.4667 100.95 51.8917 99.8583 52.475 97.925C52.525 97.7583 52.6167 97.6667 52.75 97.65C52.8833 97.65 52.9583 97.65 52.975 97.65C53.125 97.65 53.2167 97.925 53.25 98.475L53.3 99.5L60 99.525V98.175L59.875 97.05C59.8583 96.9333 59.9167 96.875 60.05 96.875C61.85 96.875 62.75 97.0667 62.75 97.45C62.75 97.5333 62.625 97.6417 62.375 97.775C62.125 97.925 62 98.0833 62 98.25V99.525L68.9 99.5L70.35 98C71.7833 99.0167 72.5 99.65 72.5 99.9C72.5 100.183 72.3333 100.325 72 100.325L68.75 102.7C68.55 102.883 68.3333 102.883 68.1 102.7L68.8 100.275ZM56.5 103.95H57.35C61.8833 107.467 67.0167 109.375 72.75 109.675C72.2167 110.375 71.6833 111.083 71.15 111.8C65.1833 110.683 60.3 108.067 56.5 103.95ZM80.25 103.575C80.15 103.642 80.075 103.675 80.025 103.675C79.7583 103.625 79.625 103.542 79.625 103.425C79.625 103.225 79.675 103.075 79.775 102.975C81.525 100.808 82.6 98.8167 83 97C85.0167 97.6667 86.0333 98.1333 86.05 98.4C85.9167 98.4833 85.4917 98.525 84.775 98.525C84.425 99.0417 84.1 99.475 83.8 99.825H88.325L89.55 98.225C90.8 99.1917 91.425 99.875 91.425 100.275C91.425 100.375 91.2417 100.425 90.875 100.425H86.325C87.4583 101.325 88.025 102.008 88.025 102.475C88.025 103.292 87.7667 103.7 87.25 103.7C87.1667 103.7 87.0083 103.65 86.775 103.55C86.575 103.45 86.2917 102.8 85.925 101.6L85.175 100.425H83.35C81.9167 102.092 80.8833 103.142 80.25 103.575ZM91.45 102.075C91.3833 102.142 91.25 102.167 91.05 102.15C90.85 102.15 90.75 102.075 90.75 101.925C90.75 101.792 90.8 101.658 90.9 101.525C91.9667 100.242 92.625 98.7333 92.875 97C94.6917 97.6667 95.6583 98.1083 95.775 98.325C95.525 98.4083 95.1833 98.45 94.75 98.45C94.4833 98.8833 94.1333 99.3333 93.7 99.8H99.15L100.375 98.2C101.625 99.1667 102.25 99.85 102.25 100.25C102.25 100.35 102.067 100.4 101.7 100.4H95.8C97 101.367 97.6 102.05 97.6 102.45C97.6 103.283 97.3417 103.7 96.825 103.7C96.7083 103.7 96.5417 103.65 96.325 103.55C96.1083 103.45 95.8167 102.8 95.45 101.6L94.7 100.4H93.225C92.675 100.883 92.0833 101.442 91.45 102.075ZM99.45 105.025H83.175C83.0583 106.158 82.8 107.017 82.4 107.6C81.9833 108.183 81.5167 108.475 81 108.475C80.2333 108.475 79.85 108.225 79.85 107.725C79.85 107.225 80.3 106.517 81.2 105.6C81.7833 105 82.2083 104.008 82.475 102.625C82.5083 102.458 82.5917 102.375 82.725 102.375C82.875 102.358 82.9583 102.35 82.975 102.35C83.125 102.35 83.2167 102.625 83.25 103.175L83.3 104.2L89.875 104.225V103.175L89.75 102.05C89.75 102.033 89.75 102.025 89.75 102.025C89.75 101.925 89.8083 101.875 89.925 101.875C91.725 101.875 92.625 102.067 92.625 102.45C92.625 102.533 92.5 102.642 92.25 102.775C92 102.925 91.875 103.083 91.875 103.25V104.225L99.275 104.2L100.725 102.7C101.992 103.717 102.625 104.442 102.625 104.875C102.625 104.975 102.458 105.025 102.125 105.025L99.475 107.7C99.375 107.8 99.275 107.85 99.175 107.85C99.0583 107.85 98.9417 107.8 98.825 107.7L99.45 105.025ZM94.7 110.75V108.35C94.7 108.117 94.65 107.933 94.55 107.8H86.45V110.75H94.7ZM96.35 117.875V115.225C96.35 114.908 96.3 114.683 96.2 114.55H86.45V117.875H96.35ZM96.725 119.6C96.425 119.6 96.275 119.5 96.275 119.3C96.275 119.117 96.2917 118.85 96.325 118.5H86.5L86.6 119.1C86.55 119.433 85.9583 119.6 84.825 119.6C84.5083 119.6 84.35 119.392 84.35 118.975V118.925L84.45 117.25V107.55L84.325 106.425V106.325C84.325 106.292 84.3667 106.275 84.45 106.275C84.5333 106.275 84.9083 106.392 85.575 106.625C86.2417 106.875 86.7 107.042 86.95 107.125H94.225L95.625 105.8C96.7583 106.383 97.4333 106.933 97.65 107.45L96.7 108.575V110.65L96.85 111.75C96.8 112.083 96.2083 112.25 95.075 112.25C94.9083 112.25 94.7667 112.017 94.65 111.55C94.65 111.517 94.6583 111.458 94.675 111.375H86.45V113.875H95.875L97.275 112.55C98.6083 113.35 99.275 113.942 99.275 114.325L98.35 115.425V117.8L98.5 119.1C98.45 119.433 97.8583 119.6 96.725 119.6ZM132.375 118.325H118.375L116.675 118.7L115.5 117.8C115.483 117.783 115.475 117.708 115.475 117.575C115.475 117.458 115.533 117.408 115.65 117.425C117.117 117.608 118.258 117.7 119.075 117.7H123.825V113.225H120.925L119.225 113.6L118.05 112.725C118 112.525 118.05 112.4 118.2 112.35C119.25 112.533 120.392 112.625 121.625 112.625H123.825V108.225H120.275L120.375 109.225C120.408 109.558 119.825 109.725 118.625 109.725C118.342 109.725 118.175 109.533 118.125 109.15L118.225 107.75V99.15L118.125 97.975C118.108 97.8583 118.142 97.8167 118.225 97.85L120.75 98.9H128.525L130.075 97.4C131.558 98.3 132.3 98.95 132.3 99.35L131.25 100.45V107.45L131.4 109.225C131.35 109.558 130.758 109.725 129.625 109.725C129.292 109.725 129.125 109.55 129.125 109.2C129.125 108.867 129.158 108.542 129.225 108.225H125.825V112.625H128.45L129.6 111.15C130.783 112.2 131.375 112.792 131.375 112.925C131.358 113.125 131.183 113.225 130.85 113.225H125.825V117.7H129.95L131.225 116.375C132.375 117.192 133.017 117.742 133.15 118.025C133.133 118.225 132.875 118.325 132.375 118.325ZM120.25 103.15H123.8V99.65H120.25V103.15ZM120.25 107.6H123.8V103.775H120.25V107.6ZM125.825 99.65L125.8 103.15H129.25V100.2C129.25 99.9667 129.2 99.7833 129.1 99.65H125.825ZM125.8 103.775V107.6H129.25V103.775H125.8ZM109.1 114.825C110.867 114.658 113.725 113.675 117.675 111.875C117.775 111.875 117.95 111.925 118.2 112.025L118.075 112.4C115.175 114.233 112.8 115.5 110.95 116.2C110.983 116.433 111 116.675 111 116.925C111 117.175 110.925 117.3 110.775 117.3H110.75C110.483 117.3 109.933 116.475 109.1 114.825ZM114.575 113.9L112.575 114.425V106.65H111.975C111.558 106.65 111.092 106.783 110.575 107.05L109.35 106.075L109.625 105.75C110.242 105.95 111.05 106.05 112.05 106.05H112.575V99.85H111.825C111.408 99.85 110.917 99.95 110.35 100.15L109.125 99.35L109.375 98.95C110.158 99.15 111.117 99.25 112.25 99.25H114.775L116.075 97.65C117.142 98.7333 117.675 99.4 117.675 99.65C117.675 99.7833 117.467 99.85 117.05 99.85H114.575V106.05H114.8L115.975 104.7C116.942 105.633 117.425 106.217 117.425 106.45C117.425 106.583 117.208 106.65 116.775 106.65H114.575V113.9ZM148.225 107.65C148.225 108.667 147.917 109.175 147.3 109.175C146.817 109.175 146.442 108.933 146.175 108.45C145.675 107.5 145.283 106.833 145 106.45C144.7 106.067 143.917 105.692 142.65 105.325C142.483 105.308 142.367 105.258 142.3 105.175C142.217 105.092 142.175 105.025 142.175 104.975V104.875C142.175 104.642 142.342 104.525 142.675 104.525H142.825L143.125 104.55C144.292 104.65 145.592 105.133 147.025 106C147.408 106.233 147.708 106.458 147.925 106.675C148.125 106.908 148.225 107.233 148.225 107.65ZM150.975 102.9C150.975 103.917 150.667 104.425 150.05 104.425C149.567 104.425 149.2 104.175 148.95 103.675C148.45 102.725 148.058 102.058 147.775 101.675C147.475 101.292 146.683 100.917 145.4 100.55C145.1 100.517 144.95 100.367 144.95 100.1C144.967 99.8667 145.133 99.75 145.45 99.75H145.6L145.875 99.775C147.075 99.8917 148.383 100.375 149.8 101.225C150.183 101.458 150.475 101.692 150.675 101.925C150.875 102.158 150.975 102.483 150.975 102.9ZM144.275 114.225C144.458 114.208 144.567 114.242 144.6 114.325C144.633 114.408 144.783 114.683 145.05 115.15C145.317 115.617 145.642 115.85 146.025 115.85C146.742 115.85 147.233 115.767 147.5 115.6C153.633 112.183 157.725 107.883 159.775 102.7C159.958 102.25 160.125 102.025 160.275 102.025C160.558 102.025 160.708 102.183 160.725 102.5C160.725 102.7 160.7 102.883 160.65 103.05C158.717 108.567 154.7 113.342 148.6 117.375C148.367 117.442 148.058 117.617 147.675 117.9C147.275 118.2 146.983 118.35 146.8 118.35C146.8 118.517 146.75 118.6 146.65 118.6C146.4 118.6 145.875 118.158 145.075 117.275C144.258 116.392 143.85 115.567 143.85 114.8C143.85 114.467 143.992 114.275 144.275 114.225ZM190.425 116.125C190.525 116.275 190.575 116.533 190.575 116.9V116.925C190.575 117.275 190.5 117.617 190.35 117.95C190.183 118.3 189.967 118.475 189.7 118.475C189.417 118.475 189.175 118.392 188.975 118.225C188.758 118.075 188.583 117.825 188.45 117.475C188.3 117.142 188.092 116.775 187.825 116.375C185.608 113.242 183.667 111.25 182 110.4C179.517 113.933 176.417 116.533 172.7 118.2C172.6 118.233 172.508 118.25 172.425 118.25C172.342 118.25 172.25 118.242 172.15 118.225C172.033 118.225 171.967 118.2 171.95 118.15C171.933 118.117 171.925 118.067 171.925 118C171.925 117.85 172.175 117.625 172.675 117.325C178.358 113.842 182.167 108.975 184.1 102.725C184.067 102.725 183.258 102.908 181.675 103.275C180.075 103.658 179.092 103.867 178.725 103.9C178.358 103.933 177.95 104 177.5 104.1L176.7 104.275H176.675C176.325 104.275 176.033 104.217 175.8 104.1C175.567 104 175.275 103.783 174.925 103.45C174.208 102.783 173.85 102.283 173.85 101.95C173.85 101.617 173.975 101.45 174.225 101.45H174.25C174.35 101.45 174.425 101.467 174.475 101.5C174.525 101.55 174.617 101.65 174.75 101.8C175.283 102.383 176.275 102.675 177.725 102.675C178.458 102.675 178.867 102.667 178.95 102.65C179.783 102.483 181.267 102.05 183.4 101.35L183.9 101.1C184.35 100.7 184.6 100.492 184.65 100.475C184.7 100.475 184.8 100.475 184.95 100.475C185.1 100.475 185.3 100.55 185.55 100.7L185.8 100.85C186.883 101.5 187.425 101.925 187.425 102.125V102.25C187.358 102.45 187.242 102.617 187.075 102.75L186.625 103.125C186.492 103.242 186.425 103.333 186.425 103.4C185.525 105.583 184.242 107.692 182.575 109.725C185.575 110.642 188.192 112.775 190.425 116.125ZM213.5 101.875L210.925 102.15H210.725C210.608 102.15 210.233 102.258 209.6 102.475C208.967 102.692 208.308 102.892 207.625 103.075C206.825 103.075 206.125 102.675 205.525 101.875C205.175 101.408 205 101.058 205 100.825C205 100.592 205.125 100.475 205.375 100.475C205.542 100.475 205.625 100.5 205.625 100.55C205.625 100.6 205.708 100.7 205.875 100.85C206.225 101.2 206.667 101.375 207.2 101.375C207.233 101.375 207.342 101.367 207.525 101.35L210.6 101.075C212.5 100.558 213.717 100.217 214.25 100.05C214.783 99.9 215.125 99.825 215.275 99.825C215.408 99.825 215.65 99.9083 216 100.075C216.967 100.542 217.45 100.967 217.45 101.35C217.45 101.617 217.283 101.817 216.95 101.95C216.6 102.083 216.358 102.15 216.225 102.15H215.9C214.9 101.967 214.117 101.875 213.55 101.875H213.5ZM217.35 106.975L212.3 107.575C213.233 108.025 213.7 108.425 213.7 108.775C213.7 108.842 213.583 108.975 213.35 109.175C213.133 109.358 213 109.608 212.95 109.925L212.775 111.125C212.508 114.592 210.75 117.175 207.5 118.875C206.717 118.808 206.325 118.75 206.325 118.7C206.325 118.3 206.567 118.025 207.05 117.875C209.767 116.175 211.125 113.5 211.125 109.85C211.125 109.6 211.125 109.35 211.125 109.1L211.075 108.25C211.075 108.117 211.017 107.958 210.9 107.775L204.525 109.025C203.842 109.025 203.1 108.558 202.3 107.625C201.883 107.142 201.675 106.783 201.675 106.55C201.675 106.317 201.8 106.2 202.05 106.2C202.167 106.2 202.258 106.225 202.325 106.275C202.792 106.908 203.433 107.225 204.25 107.225C204.333 107.225 204.425 107.217 204.525 107.2C210.392 106.683 214.925 105.967 218.125 105.05C218.775 104.867 219.142 104.775 219.225 104.775C219.308 104.775 219.525 104.858 219.875 105.025C220.842 105.492 221.325 105.908 221.325 106.275C221.325 106.658 221.108 106.942 220.675 107.125C220.425 107.225 220.225 107.275 220.075 107.275C219.908 107.275 219.567 107.225 219.05 107.125C218.533 107.025 217.967 106.975 217.35 106.975ZM233.75 113.675L234.375 113.6C234.758 113 235.725 110.833 237.275 107.1C238.825 103.383 239.6 101.192 239.6 100.525C239.6 100.192 239.242 99.9167 238.525 99.7C238.308 99.6333 238.192 99.5 238.175 99.3C238.175 99.1333 238.358 99.0417 238.725 99.025C239.075 99.025 239.658 99.1667 240.475 99.45C241.275 99.75 241.833 100.042 242.15 100.325C242.45 100.625 242.6 100.875 242.6 101.075C242.6 101.225 242.475 101.4 242.225 101.6C241.842 101.9 241.65 102.05 241.65 102.05C241.65 102.1 241.342 102.708 240.725 103.875L235.6 113.575C237.033 113.408 240.825 112.858 246.975 111.925C246.592 110.792 245.542 109.258 243.825 107.325C243.692 107.175 243.625 107.033 243.625 106.9C243.625 106.55 243.775 106.375 244.075 106.375C244.275 106.375 244.525 106.533 244.825 106.85C247.708 109.783 249.525 112.458 250.275 114.875C250.308 115.008 250.325 115.175 250.325 115.375C250.325 115.592 250.217 115.85 250 116.15C249.783 116.467 249.592 116.692 249.425 116.825C249.225 116.975 249.092 117.05 249.025 117.05H248.9C248.583 117.05 248.292 116.867 248.025 116.5C247.825 116.217 247.658 115.6 247.525 114.65L247.3 113.025C241.367 114.225 237.083 115.192 234.45 115.925C234.333 115.975 234.2 116.108 234.05 116.325C233.9 116.558 233.725 116.675 233.525 116.675C233.092 116.675 232.692 116.392 232.325 115.825C231.625 114.808 231.275 113.867 231.275 113L231.6 112.275C231.75 112.275 231.833 112.383 231.85 112.6C231.917 113.317 232.55 113.675 233.75 113.675Z" fill="black"/>
<line x1="11" y1="88.5" x2="261" y2="88.5" stroke="#B5735C" stroke-width="3"/>
</svg>
