<svg width="272" height="127" viewBox="0 0 272 127" fill="none" xmlns="http://www.w3.org/2000/svg">
<path opacity="0.55" d="M74.1304 12H20.5652C15.2825 12 11 16.3492 11 21.7143V54.7429C11 60.1079 15.2825 64.4571 20.5652 64.4571H74.1304C79.4132 64.4571 83.6957 60.1079 83.6957 54.7429V21.7143C83.6957 16.3492 79.4132 12 74.1304 12Z" fill="#D4A898"/>
<path opacity="0.85" d="M81.7827 19.7714H28.2174C22.9347 19.7714 18.6522 24.1206 18.6522 29.4856V62.5142C18.6522 67.8793 22.9347 72.2285 28.2174 72.2285H81.7827C87.0654 72.2285 91.3479 67.8793 91.3479 62.5142V29.4856C91.3479 24.1206 87.0654 19.7714 81.7827 19.7714Z" fill="#C48E7A"/>
<path d="M89.4348 27.543H35.8695C30.5868 27.543 26.3043 31.8922 26.3043 37.2573V70.2858C26.3043 75.6509 30.5868 80.0001 35.8695 80.0001H89.4348C94.7175 80.0001 99 75.6509 99 70.2858V37.2573C99 31.8922 94.7175 27.543 89.4348 27.543Z" fill="#B5735C"/>
<path d="M45.4349 59.6C50.1893 59.6 54.0436 55.6857 54.0436 50.8571C54.0436 46.0286 50.1893 42.1143 45.4349 42.1143C40.6804 42.1143 36.8262 46.0286 36.8262 50.8571C36.8262 55.6857 40.6804 59.6 45.4349 59.6Z" fill="white"/>
<path d="M33.9565 68.3429C41.6087 60.5715 49.2609 60.5715 56.9131 68.3429" stroke="white" stroke-width="3.5" stroke-linecap="round"/>
<path opacity="0.9" d="M85.8478 45.0284H68.1522C67.2277 45.0284 66.4783 45.7896 66.4783 46.7284C66.4783 47.6673 67.2277 48.4284 68.1522 48.4284H85.8478C86.7723 48.4284 87.5217 47.6673 87.5217 46.7284C87.5217 45.7896 86.7723 45.0284 85.8478 45.0284Z" fill="white"/>
<path opacity="0.7" d="M78.1957 54.7429H68.1522C67.2277 54.7429 66.4783 55.504 66.4783 56.4429C66.4783 57.3818 67.2277 58.1429 68.1522 58.1429H78.1957C79.1201 58.1429 79.8696 57.3818 79.8696 56.4429C79.8696 55.504 79.1201 54.7429 78.1957 54.7429Z" fill="white"/>
<path d="M142.903 37.68L143.663 35.2H145.623L144.823 45.32H143.223C142.663 42.8667 141.569 40.9333 139.943 39.52C138.343 38.1067 136.396 37.4 134.103 37.4C132.023 37.4 130.236 37.9467 128.743 39.04C127.276 40.1067 126.156 41.6533 125.383 43.68C124.609 45.68 124.223 48.08 124.223 50.88C124.223 54.9867 125.076 58.16 126.783 60.4C128.489 62.64 130.983 63.76 134.263 63.76C136.903 63.76 139.103 63.04 140.863 61.6C142.623 60.1333 143.876 57.9867 144.623 55.16H146.383V66H144.503L143.943 62.84C141.009 65.2133 137.449 66.4 133.263 66.4C130.036 66.4 127.223 65.7733 124.823 64.52C122.423 63.2667 120.556 61.5067 119.223 59.24C117.916 56.9467 117.263 54.24 117.263 51.12C117.263 48.6933 117.663 46.4933 118.463 44.52C119.263 42.52 120.383 40.8 121.823 39.36C123.289 37.8933 125.036 36.7733 127.063 36C129.089 35.2 131.316 34.8 133.743 34.8C135.369 34.8 136.889 35.0267 138.303 35.48C139.743 35.9333 141.276 36.6667 142.903 37.68ZM180.553 66.4L169.433 39.92H169.273V58.36C169.273 60.12 169.379 61.4267 169.593 62.28C169.806 63.1067 170.233 63.6533 170.872 63.92C171.539 64.1867 172.526 64.3467 173.833 64.4V66H161.513V64.4C162.846 64.3467 163.833 64.1867 164.473 63.92C165.139 63.6533 165.579 63.12 165.793 62.32C166.033 61.52 166.153 60.2933 166.153 58.64V42.56C166.153 41.04 166.046 39.8667 165.833 39.04C165.646 38.2133 165.246 37.64 164.633 37.32C164.046 36.9733 163.153 36.8 161.953 36.8V35.2H174.073L183.393 58.52H183.553L192.793 35.2H204.473V36.8C203.299 36.8 202.406 36.9733 201.793 37.32C201.206 37.64 200.819 38.24 200.633 39.12C200.446 39.9733 200.353 41.2133 200.353 42.84V58.36C200.353 60.12 200.459 61.4267 200.673 62.28C200.886 63.1067 201.313 63.6533 201.953 63.92C202.619 64.1867 203.606 64.3467 204.913 64.4V66H189.873V64.4C191.206 64.3467 192.193 64.1867 192.833 63.92C193.499 63.6533 193.939 63.12 194.153 62.32C194.366 61.52 194.473 60.2933 194.473 58.64V39.92H194.273L183.513 66.4H180.553ZM220.854 66L220.254 55.8H221.814C222.187 58.3067 223.2 60.2933 224.854 61.76C226.534 63.2267 228.574 63.96 230.974 63.96C232.974 63.96 234.587 63.5067 235.814 62.6C237.04 61.6667 237.654 60.4667 237.654 59C237.654 58.1467 237.454 57.4267 237.054 56.84C236.68 56.2533 235.947 55.68 234.854 55.12C233.787 54.5333 232.214 53.8533 230.134 53.08C228.08 52.28 226.374 51.4 225.014 50.44C223.654 49.48 222.64 48.4 221.974 47.2C221.307 46 220.974 44.6933 220.974 43.28C220.974 41.6 221.387 40.1333 222.214 38.88C223.067 37.6 224.227 36.6 225.694 35.88C227.187 35.16 228.907 34.8 230.854 34.8C233.494 34.8 235.96 35.6533 238.254 37.36L238.974 35.36H239.934L240.374 44H238.814C238.174 41.8133 237.174 40.1467 235.814 39C234.454 37.8267 232.88 37.24 231.094 37.24C229.467 37.24 228.134 37.6533 227.094 38.48C226.054 39.28 225.534 40.32 225.534 41.6C225.534 42.3467 225.707 43 226.054 43.56C226.427 44.0933 227.107 44.6267 228.094 45.16C229.08 45.6667 230.494 46.2667 232.334 46.96C234.814 47.8933 236.827 48.88 238.374 49.92C239.92 50.9333 241.04 52.04 241.734 53.24C242.454 54.4133 242.814 55.7467 242.814 57.24C242.814 59.0267 242.307 60.6133 241.294 62C240.28 63.3867 238.88 64.4667 237.094 65.24C235.307 66.0133 233.24 66.4 230.894 66.4C229.32 66.4 227.88 66.1867 226.574 65.76C225.267 65.3067 223.947 64.5867 222.614 63.6L221.814 66H220.854Z" fill="black"/>
<path d="M30.3283 102.672L30.6323 101.68H31.4163L31.0963 105.728H30.4563C30.2323 104.747 29.795 103.973 29.1443 103.408C28.5043 102.843 27.7256 102.56 26.8083 102.56C25.9763 102.56 25.2616 102.779 24.6643 103.216C24.0776 103.643 23.6296 104.261 23.3203 105.072C23.011 105.872 22.8563 106.832 22.8563 107.952C22.8563 109.595 23.1976 110.864 23.8803 111.76C24.563 112.656 25.5603 113.104 26.8723 113.104C27.9283 113.104 28.8083 112.816 29.5123 112.24C30.2163 111.653 30.7176 110.795 31.0163 109.664H31.7203V114H30.9683L30.7443 112.736C29.571 113.685 28.147 114.16 26.4723 114.16C25.1816 114.16 24.0563 113.909 23.0963 113.408C22.1363 112.907 21.3896 112.203 20.8563 111.296C20.3336 110.379 20.0723 109.296 20.0723 108.048C20.0723 107.077 20.2323 106.197 20.5523 105.408C20.8723 104.608 21.3203 103.92 21.8963 103.344C22.483 102.757 23.1816 102.309 23.9923 102C24.803 101.68 25.6936 101.52 26.6643 101.52C27.315 101.52 27.923 101.611 28.4883 101.792C29.0643 101.973 29.6776 102.267 30.3283 102.672ZM36.4442 100.72V111.376C36.4442 111.941 36.4709 112.363 36.5242 112.64C36.5882 112.917 36.7215 113.104 36.9242 113.2C37.1269 113.285 37.4309 113.339 37.8362 113.36V114H32.7962V113.36C33.2015 113.339 33.5055 113.28 33.7082 113.184C33.9109 113.077 34.0442 112.896 34.1082 112.64C34.1829 112.373 34.2202 111.989 34.2202 111.488V104.88C34.2202 104.261 34.2095 103.749 34.1882 103.344C34.1669 102.939 34.1402 102.667 34.1082 102.528C34.0549 102.261 33.9322 102.085 33.7402 102C33.5589 101.915 33.2229 101.872 32.7322 101.872V101.328L36.4442 100.72ZM42.2917 105.36V111.376C42.2917 111.941 42.3184 112.363 42.3717 112.64C42.4357 112.917 42.569 113.104 42.7717 113.2C42.9744 113.285 43.2784 113.339 43.6837 113.36V114H38.6437V113.36C39.049 113.339 39.353 113.28 39.5557 113.184C39.7584 113.077 39.8917 112.896 39.9557 112.64C40.0304 112.373 40.0677 111.989 40.0677 111.488V109.52C40.0677 108.901 40.057 108.389 40.0357 107.984C40.0144 107.579 39.9877 107.307 39.9557 107.168C39.9024 106.901 39.7797 106.725 39.5877 106.64C39.4064 106.555 39.0704 106.512 38.5797 106.512V105.968L42.2917 105.36ZM39.9397 101.952C39.9397 101.611 40.057 101.323 40.2917 101.088C40.537 100.843 40.8357 100.72 41.1877 100.72C41.529 100.72 41.817 100.843 42.0517 101.088C42.297 101.323 42.4197 101.611 42.4197 101.952C42.4197 102.304 42.297 102.603 42.0517 102.848C41.817 103.083 41.529 103.2 41.1877 103.2C40.8357 103.2 40.537 103.083 40.2917 102.848C40.057 102.603 39.9397 102.304 39.9397 101.952ZM52.1529 111.952L52.6009 112.512C51.6303 113.611 50.4196 114.16 48.9689 114.16C48.0943 114.16 47.3263 113.979 46.6649 113.616C46.0036 113.253 45.4863 112.752 45.1129 112.112C44.7503 111.461 44.5689 110.715 44.5689 109.872C44.5689 108.987 44.7609 108.208 45.1449 107.536C45.5396 106.853 46.0836 106.32 46.7769 105.936C47.4703 105.552 48.2649 105.36 49.1609 105.36C50.2916 105.36 51.1716 105.669 51.8009 106.288C52.4303 106.896 52.7449 107.744 52.7449 108.832C52.7449 109.003 52.7183 109.109 52.6649 109.152C52.6116 109.184 52.4623 109.2 52.2169 109.2H47.0649C47.0436 109.253 47.0276 109.323 47.0169 109.408C47.0063 109.493 47.0009 109.6 47.0009 109.728C47.0009 110.421 47.1023 111.024 47.3049 111.536C47.5183 112.037 47.8116 112.427 48.1849 112.704C48.5689 112.981 49.0169 113.12 49.5289 113.12C49.9769 113.12 50.4196 113.019 50.8569 112.816C51.3049 112.613 51.7369 112.325 52.1529 111.952ZM47.1769 108.304H49.4969C49.9343 108.304 50.2116 108.283 50.3289 108.24C50.4463 108.187 50.5049 108.069 50.5049 107.888C50.5049 107.419 50.3716 107.035 50.1049 106.736C49.8383 106.437 49.5023 106.288 49.0969 106.288C48.6383 106.288 48.2276 106.48 47.8649 106.864C47.5129 107.237 47.2836 107.717 47.1769 108.304ZM57.4323 109.184V111.392C57.4323 111.968 57.459 112.389 57.5123 112.656C57.5656 112.923 57.6883 113.099 57.8803 113.184C58.083 113.269 58.3976 113.328 58.8243 113.36V114H53.7843V113.36C54.2003 113.328 54.5096 113.275 54.7123 113.2C54.915 113.115 55.0483 112.944 55.1123 112.688C55.1763 112.432 55.2083 112.037 55.2083 111.504V109.504C55.2083 108.875 55.1976 108.368 55.1763 107.984C55.155 107.589 55.1283 107.323 55.0963 107.184C55.0323 106.907 54.9096 106.725 54.7283 106.64C54.547 106.555 54.211 106.512 53.7203 106.512V105.968L56.8083 105.36L57.0163 106.768H57.0803C57.4323 106.331 57.8483 105.989 58.3283 105.744C58.819 105.488 59.347 105.36 59.9123 105.36C60.595 105.36 61.1443 105.456 61.5603 105.648C61.987 105.829 62.3656 106.139 62.6963 106.576C62.8776 106.821 63.0376 107.141 63.1763 107.536C63.315 107.92 63.3843 108.453 63.3843 109.136V111.392C63.3843 111.968 63.411 112.389 63.4643 112.656C63.5176 112.923 63.6403 113.099 63.8323 113.184C64.035 113.269 64.339 113.328 64.7443 113.36V114H59.7363V113.36C60.163 113.339 60.4723 113.285 60.6643 113.2C60.867 113.115 61.0003 112.944 61.0643 112.688C61.1283 112.421 61.1603 112.027 61.1603 111.504V109.328C61.1603 108.24 61.0216 107.483 60.7443 107.056C60.4776 106.619 59.9976 106.4 59.3043 106.4C58.963 106.4 58.6696 106.496 58.4243 106.688C58.179 106.88 57.9656 107.147 57.7843 107.488C57.7203 107.616 57.6616 107.771 57.6083 107.952C57.555 108.133 57.5123 108.331 57.4803 108.544C57.4483 108.747 57.4323 108.96 57.4323 109.184ZM66.5133 106.4H65.3453V105.68C65.9746 105.499 66.508 105.221 66.9453 104.848C67.3826 104.475 67.708 104.053 67.9213 103.584H68.7373V105.52H70.5773V106.4H68.7373V111.312C68.7373 111.963 68.812 112.432 68.9613 112.72C69.1106 112.997 69.3506 113.136 69.6813 113.136C69.8946 113.136 70.076 113.093 70.2253 113.008C70.3853 112.912 70.5186 112.763 70.6253 112.56L70.9613 113.024C70.6626 113.781 69.9586 114.16 68.8493 114.16C68.1133 114.16 67.5373 113.989 67.1213 113.648C66.716 113.307 66.5133 112.827 66.5133 112.208V106.4ZM83.4007 114.16L78.9527 103.568H78.8887V110.944C78.8887 111.648 78.9314 112.171 79.0167 112.512C79.102 112.843 79.2727 113.061 79.5287 113.168C79.7954 113.275 80.19 113.339 80.7127 113.36V114H75.7847V113.36C76.318 113.339 76.7127 113.275 76.9687 113.168C77.2354 113.061 77.4114 112.848 77.4967 112.528C77.5927 112.208 77.6407 111.717 77.6407 111.056V104.624C77.6407 104.016 77.598 103.547 77.5127 103.216C77.438 102.885 77.278 102.656 77.0327 102.528C76.798 102.389 76.4407 102.32 75.9607 102.32V101.68H80.8087L84.5367 111.008H84.6007L88.2967 101.68H92.9687V102.32C92.4994 102.32 92.142 102.389 91.8967 102.528C91.662 102.656 91.5074 102.896 91.4327 103.248C91.358 103.589 91.3207 104.085 91.3207 104.736V110.944C91.3207 111.648 91.3634 112.171 91.4487 112.512C91.534 112.843 91.7047 113.061 91.9607 113.168C92.2274 113.275 92.622 113.339 93.1447 113.36V114H87.1287V113.36C87.662 113.339 88.0567 113.275 88.3127 113.168C88.5794 113.061 88.7554 112.848 88.8407 112.528C88.926 112.208 88.9687 111.717 88.9687 111.056V103.568H88.8887L84.5847 114.16H83.4007ZM100.865 114.16C100.375 114.16 99.9959 114.016 99.7292 113.728C99.4732 113.429 99.3452 113.003 99.3452 112.448H99.2652C98.9772 112.981 98.5825 113.397 98.0812 113.696C97.5799 113.995 97.0305 114.144 96.4332 114.144C95.9425 114.144 95.5265 114.053 95.1852 113.872C94.8439 113.68 94.5879 113.435 94.4172 113.136C94.2465 112.837 94.1612 112.517 94.1612 112.176C94.1612 111.653 94.3745 111.189 94.8012 110.784C95.2385 110.368 95.9319 109.957 96.8812 109.552L99.1212 108.592V107.92C99.1212 107.312 99.0092 106.864 98.7852 106.576C98.5719 106.288 98.2412 106.144 97.7932 106.144C97.4839 106.144 97.2492 106.224 97.0892 106.384C96.9292 106.533 96.7745 106.811 96.6252 107.216C96.5399 107.461 96.4065 107.664 96.2252 107.824C96.0439 107.984 95.8039 108.064 95.5052 108.064C95.2065 108.064 94.9719 107.979 94.8012 107.808C94.6412 107.627 94.5612 107.387 94.5612 107.088C94.5612 106.544 94.8439 106.123 95.4092 105.824C95.9745 105.515 96.8065 105.36 97.9052 105.36C99.1212 105.36 99.9852 105.573 100.497 106C101.009 106.427 101.265 107.152 101.265 108.176V111.68C101.265 112.149 101.308 112.496 101.393 112.72C101.489 112.933 101.639 113.04 101.841 113.04C101.927 113.04 102.012 113.024 102.097 112.992C102.193 112.96 102.284 112.907 102.369 112.832L102.609 113.296C102.471 113.552 102.241 113.76 101.921 113.92C101.601 114.08 101.249 114.16 100.865 114.16ZM97.4252 112.656C97.7239 112.656 98.0012 112.581 98.2572 112.432C98.5132 112.283 98.7212 112.08 98.8812 111.824C99.0412 111.557 99.1212 111.269 99.1212 110.96V109.44C98.4492 109.76 97.9159 110.043 97.5212 110.288C97.1265 110.533 96.8439 110.768 96.6732 110.992C96.5025 111.216 96.4172 111.456 96.4172 111.712C96.4172 112 96.5079 112.229 96.6892 112.4C96.8705 112.571 97.1159 112.656 97.4252 112.656ZM106.917 109.184V111.392C106.917 111.968 106.943 112.389 106.997 112.656C107.05 112.923 107.173 113.099 107.365 113.184C107.567 113.269 107.882 113.328 108.309 113.36V114H103.269V113.36C103.685 113.328 103.994 113.275 104.197 113.2C104.399 113.115 104.533 112.944 104.597 112.688C104.661 112.432 104.693 112.037 104.693 111.504V109.504C104.693 108.875 104.682 108.368 104.661 107.984C104.639 107.589 104.613 107.323 104.581 107.184C104.517 106.907 104.394 106.725 104.213 106.64C104.031 106.555 103.695 106.512 103.205 106.512V105.968L106.293 105.36L106.501 106.768H106.565C106.917 106.331 107.333 105.989 107.813 105.744C108.303 105.488 108.831 105.36 109.397 105.36C110.079 105.36 110.629 105.456 111.045 105.648C111.471 105.829 111.85 106.139 112.181 106.576C112.362 106.821 112.522 107.141 112.661 107.536C112.799 107.92 112.869 108.453 112.869 109.136V111.392C112.869 111.968 112.895 112.389 112.949 112.656C113.002 112.923 113.125 113.099 113.317 113.184C113.519 113.269 113.823 113.328 114.229 113.36V114H109.221V113.36C109.647 113.339 109.957 113.285 110.149 113.2C110.351 113.115 110.485 112.944 110.549 112.688C110.613 112.421 110.645 112.027 110.645 111.504V109.328C110.645 108.24 110.506 107.483 110.229 107.056C109.962 106.619 109.482 106.4 108.789 106.4C108.447 106.4 108.154 106.496 107.909 106.688C107.663 106.88 107.45 107.147 107.269 107.488C107.205 107.616 107.146 107.771 107.093 107.952C107.039 108.133 106.997 108.331 106.965 108.544C106.933 108.747 106.917 108.96 106.917 109.184ZM121.678 114.16C121.187 114.16 120.808 114.016 120.542 113.728C120.286 113.429 120.158 113.003 120.158 112.448H120.078C119.79 112.981 119.395 113.397 118.894 113.696C118.392 113.995 117.843 114.144 117.246 114.144C116.755 114.144 116.339 114.053 115.998 113.872C115.656 113.68 115.4 113.435 115.23 113.136C115.059 112.837 114.974 112.517 114.974 112.176C114.974 111.653 115.187 111.189 115.614 110.784C116.051 110.368 116.744 109.957 117.694 109.552L119.934 108.592V107.92C119.934 107.312 119.822 106.864 119.598 106.576C119.384 106.288 119.054 106.144 118.606 106.144C118.296 106.144 118.062 106.224 117.902 106.384C117.742 106.533 117.587 106.811 117.438 107.216C117.352 107.461 117.219 107.664 117.038 107.824C116.856 107.984 116.616 108.064 116.318 108.064C116.019 108.064 115.784 107.979 115.614 107.808C115.454 107.627 115.374 107.387 115.374 107.088C115.374 106.544 115.656 106.123 116.222 105.824C116.787 105.515 117.619 105.36 118.718 105.36C119.934 105.36 120.798 105.573 121.31 106C121.822 106.427 122.078 107.152 122.078 108.176V111.68C122.078 112.149 122.12 112.496 122.206 112.72C122.302 112.933 122.451 113.04 122.654 113.04C122.739 113.04 122.824 113.024 122.91 112.992C123.006 112.96 123.096 112.907 123.182 112.832L123.422 113.296C123.283 113.552 123.054 113.76 122.734 113.92C122.414 114.08 122.062 114.16 121.678 114.16ZM118.238 112.656C118.536 112.656 118.814 112.581 119.07 112.432C119.326 112.283 119.534 112.08 119.694 111.824C119.854 111.557 119.934 111.269 119.934 110.96V109.44C119.262 109.76 118.728 110.043 118.334 110.288C117.939 110.533 117.656 110.768 117.486 110.992C117.315 111.216 117.23 111.456 117.23 111.712C117.23 112 117.32 112.229 117.502 112.4C117.683 112.571 117.928 112.656 118.238 112.656ZM128.113 118.16C126.78 118.16 125.756 117.957 125.041 117.552C124.327 117.157 123.969 116.587 123.969 115.84C123.969 115.339 124.113 114.944 124.401 114.656C124.7 114.379 125.068 114.24 125.505 114.24C125.783 114.24 126.049 114.293 126.305 114.4C126.572 114.517 126.791 114.683 126.961 114.896C126.684 114.949 126.455 115.072 126.273 115.264C126.103 115.467 126.017 115.712 126.017 116C126.017 116.405 126.209 116.72 126.593 116.944C126.977 117.179 127.543 117.296 128.289 117.296C129.868 117.296 130.657 116.795 130.657 115.792C130.657 115.419 130.54 115.104 130.305 114.848C130.081 114.592 129.735 114.432 129.265 114.368L126.465 113.984C125.879 113.899 125.436 113.723 125.137 113.456C124.839 113.189 124.689 112.837 124.689 112.4C124.689 111.963 124.828 111.605 125.105 111.328C125.393 111.051 125.799 110.859 126.321 110.752V110.688C125.841 110.496 125.447 110.165 125.137 109.696C124.828 109.216 124.673 108.699 124.673 108.144C124.673 107.611 124.817 107.136 125.105 106.72C125.393 106.304 125.783 105.973 126.273 105.728C126.775 105.483 127.329 105.36 127.937 105.36C128.407 105.36 128.86 105.429 129.297 105.568C129.735 105.707 130.108 105.899 130.417 106.144C130.823 105.824 131.18 105.616 131.489 105.52C131.809 105.413 132.103 105.36 132.369 105.36C132.775 105.36 133.1 105.451 133.345 105.632C133.601 105.813 133.729 106.053 133.729 106.352C133.729 106.576 133.66 106.763 133.521 106.912C133.383 107.051 133.207 107.12 132.993 107.12C132.78 107.12 132.609 107.061 132.481 106.944C132.364 106.827 132.247 106.715 132.129 106.608C132.023 106.491 131.873 106.432 131.681 106.432C131.447 106.432 131.223 106.576 131.009 106.864C131.116 107.045 131.191 107.243 131.233 107.456C131.276 107.659 131.297 107.883 131.297 108.128C131.297 108.544 131.233 108.928 131.105 109.28C130.977 109.621 130.775 109.931 130.497 110.208C130.231 110.475 129.884 110.699 129.457 110.88C129.031 111.051 128.513 111.168 127.905 111.232C127.575 111.264 127.308 111.307 127.105 111.36C126.903 111.413 126.759 111.477 126.673 111.552C126.588 111.616 126.545 111.707 126.545 111.824C126.545 111.952 126.604 112.053 126.721 112.128C126.849 112.203 127.031 112.256 127.265 112.288L129.873 112.608C130.695 112.715 131.345 113.019 131.825 113.52C132.305 114.021 132.545 114.645 132.545 115.392C132.545 116.299 132.167 116.987 131.409 117.456C130.663 117.925 129.564 118.16 128.113 118.16ZM128.033 110.32C128.375 110.32 128.641 110.139 128.833 109.776C129.025 109.413 129.121 108.907 129.121 108.256C129.121 107.595 129.025 107.088 128.833 106.736C128.641 106.373 128.369 106.192 128.017 106.192C127.655 106.192 127.367 106.373 127.153 106.736C126.94 107.099 126.833 107.595 126.833 108.224C126.833 108.853 126.94 109.36 127.153 109.744C127.377 110.128 127.671 110.32 128.033 110.32ZM141.481 111.952L141.929 112.512C140.958 113.611 139.748 114.16 138.297 114.16C137.422 114.16 136.654 113.979 135.993 113.616C135.332 113.253 134.814 112.752 134.441 112.112C134.078 111.461 133.897 110.715 133.897 109.872C133.897 108.987 134.089 108.208 134.473 107.536C134.868 106.853 135.412 106.32 136.105 105.936C136.798 105.552 137.593 105.36 138.489 105.36C139.62 105.36 140.5 105.669 141.129 106.288C141.758 106.896 142.073 107.744 142.073 108.832C142.073 109.003 142.046 109.109 141.993 109.152C141.94 109.184 141.79 109.2 141.545 109.2H136.393C136.372 109.253 136.356 109.323 136.345 109.408C136.334 109.493 136.329 109.6 136.329 109.728C136.329 110.421 136.43 111.024 136.633 111.536C136.846 112.037 137.14 112.427 137.513 112.704C137.897 112.981 138.345 113.12 138.857 113.12C139.305 113.12 139.748 113.019 140.185 112.816C140.633 112.613 141.065 112.325 141.481 111.952ZM136.505 108.304H138.825C139.262 108.304 139.54 108.283 139.657 108.24C139.774 108.187 139.833 108.069 139.833 107.888C139.833 107.419 139.7 107.035 139.433 106.736C139.166 106.437 138.83 106.288 138.425 106.288C137.966 106.288 137.556 106.48 137.193 106.864C136.841 107.237 136.612 107.717 136.505 108.304ZM146.776 109.248V111.36C146.776 111.947 146.803 112.379 146.856 112.656C146.91 112.933 147.032 113.115 147.224 113.2C147.416 113.275 147.726 113.328 148.152 113.36V114H143.096V113.36C143.523 113.328 143.838 113.269 144.04 113.184C144.243 113.099 144.376 112.928 144.44 112.672C144.504 112.416 144.536 112.021 144.536 111.488V109.504C144.536 108.896 144.526 108.389 144.504 107.984C144.494 107.568 144.467 107.291 144.424 107.152C144.36 106.875 144.243 106.699 144.072 106.624C143.912 106.549 143.576 106.512 143.064 106.512V105.968L146.152 105.36L146.344 106.752H146.44C146.888 106.251 147.342 105.893 147.8 105.68C148.259 105.467 148.782 105.36 149.368 105.36C150.072 105.36 150.654 105.483 151.112 105.728C151.571 105.973 151.918 106.325 152.152 106.784H152.216C152.6 106.336 153.059 105.989 153.592 105.744C154.136 105.488 154.707 105.36 155.304 105.36C155.934 105.36 156.488 105.44 156.968 105.6C157.448 105.76 157.822 105.989 158.088 106.288C158.302 106.523 158.456 106.843 158.552 107.248C158.659 107.653 158.712 108.203 158.712 108.896V111.36C158.712 111.947 158.739 112.379 158.792 112.656C158.856 112.923 158.984 113.099 159.176 113.184C159.379 113.269 159.688 113.328 160.104 113.36V114H155.048V113.36C155.475 113.339 155.79 113.285 155.992 113.2C156.195 113.115 156.323 112.944 156.376 112.688C156.44 112.421 156.472 112.021 156.472 111.488V109.392C156.472 108.283 156.339 107.509 156.072 107.072C155.806 106.624 155.342 106.4 154.68 106.4C154.307 106.4 153.998 106.491 153.752 106.672C153.518 106.853 153.32 107.088 153.16 107.376C153.075 107.536 153 107.717 152.936 107.92C152.872 108.123 152.824 108.336 152.792 108.56C152.76 108.773 152.744 109.003 152.744 109.248V111.36C152.744 111.947 152.771 112.379 152.824 112.656C152.878 112.923 153 113.099 153.192 113.184C153.395 113.269 153.715 113.328 154.152 113.36V114H149.08V113.36C149.507 113.328 149.822 113.269 150.024 113.184C150.227 113.099 150.355 112.928 150.408 112.672C150.472 112.416 150.504 112.021 150.504 111.488V109.392C150.504 108.645 150.446 108.053 150.328 107.616C150.211 107.179 150.019 106.869 149.752 106.688C149.486 106.496 149.118 106.4 148.648 106.4C148.296 106.4 148.003 106.485 147.768 106.656C147.544 106.827 147.358 107.056 147.208 107.344C147.123 107.515 147.043 107.701 146.968 107.904C146.904 108.107 146.856 108.325 146.824 108.56C146.792 108.784 146.776 109.013 146.776 109.248ZM168.544 111.952L168.992 112.512C168.021 113.611 166.81 114.16 165.36 114.16C164.485 114.16 163.717 113.979 163.056 113.616C162.394 113.253 161.877 112.752 161.504 112.112C161.141 111.461 160.96 110.715 160.96 109.872C160.96 108.987 161.152 108.208 161.536 107.536C161.93 106.853 162.474 106.32 163.168 105.936C163.861 105.552 164.656 105.36 165.552 105.36C166.682 105.36 167.562 105.669 168.192 106.288C168.821 106.896 169.136 107.744 169.136 108.832C169.136 109.003 169.109 109.109 169.056 109.152C169.002 109.184 168.853 109.2 168.608 109.2H163.456C163.434 109.253 163.418 109.323 163.408 109.408C163.397 109.493 163.392 109.6 163.392 109.728C163.392 110.421 163.493 111.024 163.696 111.536C163.909 112.037 164.202 112.427 164.576 112.704C164.96 112.981 165.408 113.12 165.92 113.12C166.368 113.12 166.81 113.019 167.248 112.816C167.696 112.613 168.128 112.325 168.544 111.952ZM163.568 108.304H165.888C166.325 108.304 166.602 108.283 166.72 108.24C166.837 108.187 166.896 108.069 166.896 107.888C166.896 107.419 166.762 107.035 166.496 106.736C166.229 106.437 165.893 106.288 165.488 106.288C165.029 106.288 164.618 106.48 164.256 106.864C163.904 107.237 163.674 107.717 163.568 108.304ZM173.823 109.184V111.392C173.823 111.968 173.85 112.389 173.903 112.656C173.956 112.923 174.079 113.099 174.271 113.184C174.474 113.269 174.788 113.328 175.215 113.36V114H170.175V113.36C170.591 113.328 170.9 113.275 171.103 113.2C171.306 113.115 171.439 112.944 171.503 112.688C171.567 112.432 171.599 112.037 171.599 111.504V109.504C171.599 108.875 171.588 108.368 171.567 107.984C171.546 107.589 171.519 107.323 171.487 107.184C171.423 106.907 171.3 106.725 171.119 106.64C170.938 106.555 170.602 106.512 170.111 106.512V105.968L173.199 105.36L173.407 106.768H173.471C173.823 106.331 174.239 105.989 174.719 105.744C175.21 105.488 175.738 105.36 176.303 105.36C176.986 105.36 177.535 105.456 177.951 105.648C178.378 105.829 178.756 106.139 179.087 106.576C179.268 106.821 179.428 107.141 179.567 107.536C179.706 107.92 179.775 108.453 179.775 109.136V111.392C179.775 111.968 179.802 112.389 179.855 112.656C179.908 112.923 180.031 113.099 180.223 113.184C180.426 113.269 180.73 113.328 181.135 113.36V114H176.127V113.36C176.554 113.339 176.863 113.285 177.055 113.2C177.258 113.115 177.391 112.944 177.455 112.688C177.519 112.421 177.551 112.027 177.551 111.504V109.328C177.551 108.24 177.412 107.483 177.135 107.056C176.868 106.619 176.388 106.4 175.695 106.4C175.354 106.4 175.06 106.496 174.815 106.688C174.57 106.88 174.356 107.147 174.175 107.488C174.111 107.616 174.052 107.771 173.999 107.952C173.946 108.133 173.903 108.331 173.871 108.544C173.839 108.747 173.823 108.96 173.823 109.184ZM182.904 106.4H181.736V105.68C182.365 105.499 182.899 105.221 183.336 104.848C183.773 104.475 184.099 104.053 184.312 103.584H185.128V105.52H186.968V106.4H185.128V111.312C185.128 111.963 185.203 112.432 185.352 112.72C185.501 112.997 185.741 113.136 186.072 113.136C186.285 113.136 186.467 113.093 186.616 113.008C186.776 112.912 186.909 112.763 187.016 112.56L187.352 113.024C187.053 113.781 186.349 114.16 185.24 114.16C184.504 114.16 183.928 113.989 183.512 113.648C183.107 113.307 182.904 112.827 182.904 112.208V106.4ZM192.799 114L192.559 109.92H193.183C193.333 110.923 193.738 111.717 194.399 112.304C195.071 112.891 195.887 113.184 196.847 113.184C197.647 113.184 198.293 113.003 198.783 112.64C199.274 112.267 199.519 111.787 199.519 111.2C199.519 110.859 199.439 110.571 199.279 110.336C199.13 110.101 198.837 109.872 198.399 109.648C197.973 109.413 197.343 109.141 196.511 108.832C195.69 108.512 195.007 108.16 194.463 107.776C193.919 107.392 193.514 106.96 193.247 106.48C192.981 106 192.847 105.477 192.847 104.912C192.847 104.24 193.013 103.653 193.343 103.152C193.685 102.64 194.149 102.24 194.735 101.952C195.333 101.664 196.021 101.52 196.799 101.52C197.855 101.52 198.842 101.861 199.759 102.544L200.047 101.744H200.431L200.607 105.2H199.983C199.727 104.325 199.327 103.659 198.783 103.2C198.239 102.731 197.61 102.496 196.895 102.496C196.245 102.496 195.711 102.661 195.295 102.992C194.879 103.312 194.671 103.728 194.671 104.24C194.671 104.539 194.741 104.8 194.879 105.024C195.029 105.237 195.301 105.451 195.695 105.664C196.09 105.867 196.655 106.107 197.391 106.384C198.383 106.757 199.189 107.152 199.807 107.568C200.426 107.973 200.874 108.416 201.151 108.896C201.439 109.365 201.583 109.899 201.583 110.496C201.583 111.211 201.381 111.845 200.975 112.4C200.57 112.955 200.01 113.387 199.295 113.696C198.581 114.005 197.754 114.16 196.815 114.16C196.186 114.16 195.61 114.075 195.087 113.904C194.565 113.723 194.037 113.435 193.503 113.04L193.183 114H192.799ZM210.217 108.832L206.553 116.512C206.329 116.981 205.988 117.371 205.529 117.68C205.07 118 204.606 118.16 204.137 118.16C203.785 118.16 203.502 118.075 203.289 117.904C203.076 117.733 202.969 117.504 202.969 117.216C202.969 116.949 203.06 116.741 203.241 116.592C203.433 116.443 203.737 116.352 204.153 116.32C204.644 116.277 205.038 116.181 205.337 116.032C205.636 115.883 205.854 115.68 205.993 115.424L206.425 114.592L203.593 107.584C203.433 107.168 203.289 106.864 203.161 106.672C203.044 106.469 202.905 106.336 202.745 106.272C202.585 106.208 202.366 106.171 202.089 106.16V105.52H206.937V106.16C206.521 106.16 206.228 106.203 206.057 106.288C205.897 106.363 205.817 106.507 205.817 106.72C205.817 106.795 205.828 106.891 205.849 107.008C205.881 107.125 205.918 107.243 205.961 107.36L207.593 112.032H207.657L209.033 108.912C209.225 108.464 209.369 108.117 209.465 107.872C209.572 107.616 209.641 107.413 209.673 107.264C209.716 107.115 209.737 106.981 209.737 106.864C209.737 106.587 209.657 106.4 209.497 106.304C209.348 106.208 209.038 106.16 208.569 106.16V105.52H212.425V106.16C212.222 106.16 212.041 106.192 211.881 106.256C211.732 106.309 211.582 106.427 211.433 106.608C211.284 106.789 211.113 107.056 210.921 107.408C210.729 107.76 210.494 108.235 210.217 108.832ZM213.767 113.44L213.415 114H212.919V111.088H213.591C213.772 111.845 214.033 112.405 214.375 112.768C214.716 113.12 215.159 113.296 215.703 113.296C216.097 113.296 216.401 113.216 216.615 113.056C216.839 112.885 216.951 112.656 216.951 112.368C216.951 112.165 216.892 111.973 216.775 111.792C216.657 111.6 216.471 111.408 216.215 111.216C215.969 111.013 215.649 110.805 215.255 110.592C214.721 110.293 214.284 110.005 213.943 109.728C213.612 109.44 213.367 109.141 213.207 108.832C213.057 108.523 212.983 108.187 212.983 107.824C212.983 107.344 213.095 106.917 213.319 106.544C213.553 106.171 213.868 105.877 214.263 105.664C214.657 105.451 215.1 105.344 215.591 105.344C215.921 105.344 216.252 105.392 216.583 105.488C216.913 105.584 217.196 105.717 217.431 105.888L217.719 105.504H218.135V107.92H217.511C217.265 107.312 217.009 106.875 216.743 106.608C216.487 106.341 216.172 106.208 215.799 106.208C215.5 106.208 215.26 106.288 215.079 106.448C214.908 106.608 214.823 106.821 214.823 107.088C214.823 107.387 214.956 107.669 215.223 107.936C215.489 108.203 215.921 108.496 216.519 108.816C217.095 109.125 217.559 109.429 217.911 109.728C218.273 110.027 218.535 110.336 218.695 110.656C218.855 110.976 218.935 111.328 218.935 111.712C218.935 112.448 218.668 113.04 218.135 113.488C217.612 113.936 216.908 114.16 216.023 114.16C215.564 114.16 215.137 114.101 214.743 113.984C214.348 113.856 214.023 113.675 213.767 113.44ZM221.076 106.4H219.908V105.68C220.537 105.499 221.07 105.221 221.508 104.848C221.945 104.475 222.27 104.053 222.484 103.584H223.3V105.52H225.14V106.4H223.3V111.312C223.3 111.963 223.374 112.432 223.524 112.72C223.673 112.997 223.913 113.136 224.244 113.136C224.457 113.136 224.638 113.093 224.788 113.008C224.948 112.912 225.081 112.763 225.188 112.56L225.524 113.024C225.225 113.781 224.521 114.16 223.412 114.16C222.676 114.16 222.1 113.989 221.684 113.648C221.278 113.307 221.076 112.827 221.076 112.208V106.4ZM233.809 111.952L234.257 112.512C233.287 113.611 232.076 114.16 230.625 114.16C229.751 114.16 228.983 113.979 228.321 113.616C227.66 113.253 227.143 112.752 226.769 112.112C226.407 111.461 226.225 110.715 226.225 109.872C226.225 108.987 226.417 108.208 226.801 107.536C227.196 106.853 227.74 106.32 228.433 105.936C229.127 105.552 229.921 105.36 230.817 105.36C231.948 105.36 232.828 105.669 233.457 106.288C234.087 106.896 234.401 107.744 234.401 108.832C234.401 109.003 234.375 109.109 234.321 109.152C234.268 109.184 234.119 109.2 233.873 109.2H228.721C228.7 109.253 228.684 109.323 228.673 109.408C228.663 109.493 228.657 109.6 228.657 109.728C228.657 110.421 228.759 111.024 228.961 111.536C229.175 112.037 229.468 112.427 229.841 112.704C230.225 112.981 230.673 113.12 231.185 113.12C231.633 113.12 232.076 113.019 232.513 112.816C232.961 112.613 233.393 112.325 233.809 111.952ZM228.833 108.304H231.153C231.591 108.304 231.868 108.283 231.985 108.24C232.103 108.187 232.161 108.069 232.161 107.888C232.161 107.419 232.028 107.035 231.761 106.736C231.495 106.437 231.159 106.288 230.753 106.288C230.295 106.288 229.884 106.48 229.521 106.864C229.169 107.237 228.94 107.717 228.833 108.304ZM239.105 109.248V111.36C239.105 111.947 239.131 112.379 239.185 112.656C239.238 112.933 239.361 113.115 239.553 113.2C239.745 113.275 240.054 113.328 240.481 113.36V114H235.425V113.36C235.851 113.328 236.166 113.269 236.369 113.184C236.571 113.099 236.705 112.928 236.769 112.672C236.833 112.416 236.865 112.021 236.865 111.488V109.504C236.865 108.896 236.854 108.389 236.833 107.984C236.822 107.568 236.795 107.291 236.753 107.152C236.689 106.875 236.571 106.699 236.401 106.624C236.241 106.549 235.905 106.512 235.393 106.512V105.968L238.481 105.36L238.673 106.752H238.769C239.217 106.251 239.67 105.893 240.129 105.68C240.587 105.467 241.11 105.36 241.697 105.36C242.401 105.36 242.982 105.483 243.441 105.728C243.899 105.973 244.246 106.325 244.481 106.784H244.545C244.929 106.336 245.387 105.989 245.921 105.744C246.465 105.488 247.035 105.36 247.633 105.36C248.262 105.36 248.817 105.44 249.297 105.6C249.777 105.76 250.15 105.989 250.417 106.288C250.63 106.523 250.785 106.843 250.881 107.248C250.987 107.653 251.041 108.203 251.041 108.896V111.36C251.041 111.947 251.067 112.379 251.121 112.656C251.185 112.923 251.313 113.099 251.505 113.184C251.707 113.269 252.017 113.328 252.433 113.36V114H247.377V113.36C247.803 113.339 248.118 113.285 248.321 113.2C248.523 113.115 248.651 112.944 248.705 112.688C248.769 112.421 248.801 112.021 248.801 111.488V109.392C248.801 108.283 248.667 107.509 248.401 107.072C248.134 106.624 247.67 106.4 247.009 106.4C246.635 106.4 246.326 106.491 246.081 106.672C245.846 106.853 245.649 107.088 245.489 107.376C245.403 107.536 245.329 107.717 245.265 107.92C245.201 108.123 245.153 108.336 245.121 108.56C245.089 108.773 245.073 109.003 245.073 109.248V111.36C245.073 111.947 245.099 112.379 245.153 112.656C245.206 112.923 245.329 113.099 245.521 113.184C245.723 113.269 246.043 113.328 246.481 113.36V114H241.409V113.36C241.835 113.328 242.15 113.269 242.353 113.184C242.555 113.099 242.683 112.928 242.737 112.672C242.801 112.416 242.833 112.021 242.833 111.488V109.392C242.833 108.645 242.774 108.053 242.657 107.616C242.539 107.179 242.347 106.869 242.081 106.688C241.814 106.496 241.446 106.4 240.977 106.4C240.625 106.4 240.331 106.485 240.097 106.656C239.873 106.827 239.686 107.056 239.537 107.344C239.451 107.515 239.371 107.701 239.297 107.904C239.233 108.107 239.185 108.325 239.153 108.56C239.121 108.784 239.105 109.013 239.105 109.248Z" fill="#919191"/>
<line x1="11" y1="88.5" x2="261" y2="88.5" stroke="#B5735C" stroke-width="3"/>
</svg>
