<svg width="64" height="64" viewBox="0 0 64 64" fill="none" xmlns="http://www.w3.org/2000/svg">
<g clip-path="url(#clip0_545_2)">
<path d="M50 0H14C6.26801 0 0 6.26801 0 14V50C0 57.732 6.26801 64 14 64H50C57.732 64 64 57.732 64 50V14C64 6.26801 57.732 0 50 0Z" fill="url(#paint0_linear_545_2)"/>
<path d="M46.9245 13.768L47.9505 10.42H50.5965L49.5165 24.082H47.3565C46.6005 20.77 45.1245 18.16 42.9285 16.252C40.7685 14.344 38.1405 13.39 35.0445 13.39C32.2365 13.39 29.8245 14.128 27.8085 15.604C25.8285 17.044 24.3165 19.132 23.2725 21.868C22.2285 24.568 21.7065 27.808 21.7065 31.588C21.7065 37.132 22.8585 41.416 25.1625 44.44C27.4665 47.464 30.8325 48.976 35.2605 48.976C38.8245 48.976 41.7945 48.004 44.1705 46.06C46.5465 44.08 48.2385 41.182 49.2465 37.366H51.6225V52H49.0845L48.3285 47.734C44.3685 50.938 39.5625 52.54 33.9105 52.54C29.5545 52.54 25.7565 51.694 22.5165 50.002C19.2765 48.31 16.7565 45.934 14.9565 42.874C13.1925 39.778 12.3105 36.124 12.3105 31.912C12.3105 28.636 12.8505 25.666 13.9305 23.002C15.0105 20.302 16.5225 17.98 18.4665 16.036C20.4465 14.056 22.8045 12.544 25.5405 11.5C28.2765 10.42 31.2825 9.88 34.5585 9.88C36.7545 9.88 38.8065 10.186 40.7145 10.798C42.6585 11.41 44.7285 12.4 46.9245 13.768Z" fill="white"/>
</g>
<defs>
<linearGradient id="paint0_linear_545_2" x1="0" y1="0" x2="64" y2="64" gradientUnits="userSpaceOnUse">
<stop stop-color="#D09077"/>
<stop offset="1" stop-color="#7A4734"/>
</linearGradient>
<clipPath id="clip0_545_2">
<rect width="64" height="64" fill="white"/>
</clipPath>
</defs>
</svg>
